<svg id="Lager_1" data-name="Lager 1" xmlns="http://www.w3.org/2000/svg" viewBox="0 0 988.63 811.24"><defs><style>.cls-1{fill:#1a431f;}.cls-2{fill:#d3d3d3;}.cls-3{fill:#c1c1bf;}.cls-4{fill:#ededed;}.cls-5{fill:#c6c6c6;}.cls-6{fill:#d3d2d1;}.cls-7{fill:#bea5a0;}.cls-8{fill:#f4f4f4;}.cls-9{fill:#e5e5e5;}.cls-10{fill:#c4c4c4;}.cls-11{fill:#cecece;}.cls-12{fill:#a5a5a5;}.cls-13{fill:#fff;}.cls-14{fill:#f7f7f7;}.cls-15{fill:#6d6a6b;}.cls-16{fill:#3a3a3a;}.cls-17{fill:#b5cad8;}.cls-18{fill:#8ea593;}.cls-19{fill:#161616;}</style></defs><path class="cls-1" d="M888.6,883.51c10.9-18.38,14.33-38.89,17.15-59.06,3.32-23.76,5.89-48.33-3.25-71.12-11.12-27.73-39.12-50.09-72.14-63.1s-70.66-17.35-107.57-16.72c-12.36.21-24.79,1-37-.3-14.16-1.44-27.65-5.48-41.37-8.59-71.07-16.16-147.74-7.38-218.34,10C379.62,686,334.1,701.14,285.74,705.09c-34.15,2.79-69.47,0-102.17,8.22-45.31,11.41-80.17,45.13-85.21,82.39s20,76,61.3,94.67C226.25,920.52,317,898,382.17,929.93c15.46,7.58,28.7,17.94,45.09,24.18,31.69,12.06,69.19,6.82,103.45.47Q600.48,941.64,668.65,924c17.73-4.6,35.62-9.48,54.25-10.35,12.94-.6,25.88.76,38.73,2.12,22.26,2.34,45.69,6.73,68.13,7.17,15.55.3,32.65-10.9,42.36-19.51A83.57,83.57,0,0,0,888.6,883.51Z" transform="translate(-5 -150.12)"/><path class="cls-2" d="M56.7,236.19a33.07,33.07,0,0,0-27.48-7A2.67,2.67,0,0,0,28,233.74l17.9,17a78,78,0,0,0-26.51,20.46,2.43,2.43,0,0,0,1.19,3.86,24.27,24.27,0,0,0,8.89.77,211.12,211.12,0,0,0-24.27,39,1.61,1.61,0,0,0,1.67,2.29,49.63,49.63,0,0,0,17.08-6.12l-8.69,34.25a1.93,1.93,0,0,0,2,2.4A71.73,71.73,0,0,0,46,338.12l1.51,20.72a3.54,3.54,0,0,0,4.89,3L66.52,356a10.75,10.75,0,0,1,14.25,6.33l10.71,30.28c-9-.94-20.5,2.33-21.36,11.31-1.13,11.85,20,15.06,20.93,26.92.89,11.09-17,18.23-13.8,28.87,1.44,4.78,6.61,7.2,10.1,10.78,8.13,8.32,4.92,24.53-5.77,29.14,7.9,1.57,11.37,11.69,9.19,19.44s-8.11,13.77-13.21,20S67.82,552.9,69,560.88l12.3-6.06c-5.23,5.1-10.67,10.53-12.66,17.56s.95,16,8,18c7.52,2.17,17.59-3.66,22.47,2.46,1.92,2.4,2,5.74,2,8.81l-.19,24.54c2.45,2.23,5.87-1,8.59-2.9,6.65-4.59,16.44.16,20,7.41s2.73,15.78,1.81,23.8l10.69-.76a311.06,311.06,0,0,1-8.18,82.27,15.93,15.93,0,0,1,5.91-8.73l.48,50.64,15-8.54,19.95,45.12c1.22,2.76,2.6,5.72,6.27,6.2a8.16,8.16,0,0,0,6.77-2.58c3.21-3.31,3.88-8,4.46-12.45,7,4,8.73,13.08,10.88,20.85s7.35,16.55,15.4,16.19c3.22-.14,6.18-1.8,9.37-2.24,15.66-2.18,27.31,24.2,41.59,17.41,5.49-2.61,8.08-9.44,13.66-11.85,13.8-6,24.1,19.19,39.08,17.76,3.51-.33,6.68-2.17,9.72-4l22.35-13.19c9.27-5.47,19.14-11.61,23.25-21.56,4-9.76,1.56-20.85-1-31.1l-9.09-36.93c-.88-3.55-1.82-7.24-4.21-10-7.83-9.05-24-2.07-33.88-8.8-11.2-7.63-7.79-28-19.77-34.34-3-1.6-6.74-2.08-9-4.62-4.07-4.52-.84-12.19-3.79-17.52-3.16-5.72-11.5-5.87-16.36-10.25-7.93-7.14-3.15-21.33-9.48-29.93-2.55-3.47-6.62-5.55-9.3-8.93-3.43-4.35-4.12-10.19-4.62-15.71q-2.72-30.39-2.83-60.94c0-2.67,0-5.47-1.35-7.78-4.91-8.65-19.14-1.5-27.87-6.26-4.55-8.61,4.26-21.32-2.7-28.14-2.11-2.06-5.11-2.83-7.88-3.85A39.16,39.16,0,0,1,190.12,480c-1.25-7.94,0-16,1.29-24l12-75c-2.58,3.1-7.71-1.3-7.35-5.32s3.25-7.44,3.8-11.44c1.7-12.41-17.38-16.62-22.86-27.89-4-8.19-.64-20.09-8.06-25.37-2.44-1.73-5.53-2.23-8.28-3.41-8.12-3.51-12.22-12.35-16.35-20.17a152.44,152.44,0,0,0-27.51-37.14c-1.8-1.78-3.76-3.59-6.23-4.16s-4.78.09-7.16-.14c-5.68-.56-9.66-5.78-12.28-10.85s-4.88-10.74-9.65-13.87-13-1.5-13.71,4.16A18,18,0,0,0,59.2,213a1.88,1.88,0,0,0-2.79,1.54C55.93,222.9,55.73,226.77,56.7,236.19Z" transform="translate(-5 -150.12)"/><path class="cls-3" d="M484,834.22c6.91,1.59,13.24,5,19.8,7.66,10.51,4.27,21.67,6.68,32.75,9.07,7.12,1.54,14.54,3.07,21.61,1.35s13.67-7.75,13.51-15c-.09-3.62-1.77-7-3.41-10.2-5.66-11.1-12.92-23.46-25.16-25.78-4.12-.79-8.38-.29-12.55-.77-4.85-.56-9.52-2.42-14.4-2.55-4.53-.12-8.95,1.28-13.27,2.66A123.39,123.39,0,0,0,485.76,807a62.73,62.73,0,0,0-18.88,14.25c-1.33,1.46-2.59,3-3.78,4.58-1,1.34-2.83,3.23-3.25,4.86-1,3.88,6.68,2.51,8.51,2.41A56.76,56.76,0,0,1,484,834.22Z" transform="translate(-5 -150.12)"/><path class="cls-2" d="M581.78,413.54c-4.75,1.93-8.21,6.15-12.79,8.46-9.29,4.7-20.88.64-30.7,4.09-8.95,3.15-14.61,11.79-22,17.67-11.1,8.78-25.76,11.15-39.11,15.84S450,473.46,448,487.48c-6.48-4.43-15.07,1.37-19.93,7.53s-10.18,13.79-18,13.68c-1.77,0-3.68-.44-5.21.45-3.06,1.79-1.67,6.45-2.56,9.89-1.17,4.53-6.3,6.53-10.6,8.39-21.5,9.28-35.52,29.79-50.19,48.06-18.66,23.24-40.06,44.19-62.79,63.48-2.31,2-4.7,4-6.13,6.66-1.84,3.44-1.89,7.5-2.35,11.37a50.42,50.42,0,0,1-14.42,29.56c8,1.43,8.35,13.33,3.95,20.15s-11.56,12.46-12.49,20.52,4.75,15.57,4,23.55c-.77,8.15-8,14.77-8,23,0,5.79,3.7,11,4.13,16.8.35,4.73-1.52,9.31-3.35,13.68l-20.38,48.7,22.27-16.36a46.11,46.11,0,0,0-3.31,25.85c6.07-10,21.82-12.13,30.34-4.13,2.39,2.25,4.46,5.23,7.67,6,9.36,2.09,14.47-16.35,23.57-13.3,3.51,1.18,5.28,5.26,8.64,6.79,8.17,3.73,15.18-9.64,24.15-9.18,4.16.22,7.49,3.4,11.34,5,9.81,4,20.28-2.79,30.07-6.84a60.26,60.26,0,0,1,45.44,0c2.22.92,4.57,2,6.92,1.53a11.26,11.26,0,0,0,4.69-2.64l12.67-10.11c-.77,7.47,10.52,10.69,16.74,6.49s8.86-11.87,12.87-18.21,11.73-12.06,18.54-8.91c1.69.78,3.16,2.06,4.95,2.56,8.57,2.42,12.54-12.93,21.41-13.74a19.79,19.79,0,0,0,6.61,15.35c2.16-5.82,6.63-11,12.54-12.91s13.17.1,16.42,5.4c2.4,3.91,2.38,8.79,3.5,13.24s4.41,9.18,9,9c4-.19,6.86-4,10.72-5,12.14-3,15,20.64,27.43,22.34,7,1,12.49-5.85,15.2-12.34s4.62-14,10.45-17.95a21.27,21.27,0,0,0,4.3,12.34c.06-4.56.2-9.37,2.58-13.27s7.83-6.29,11.66-3.8a12.87,12.87,0,0,1,6.48-14.11c-1.07,3.43,4.23,5.94,7.25,4s3.84-5.94,4.19-9.52c2.4-24.14-4.92-48.18-5.44-72.43-.35-16.21,2.34-32.32,3.54-48.49,1.64-22.28.43-44.66-1.06-66.95q-1.89-28.37-4.42-56.68-2.55-28.62-5.72-57.16t-6.94-56.82c-.8-5.93-.94-13.15-5.56-17.62-3.45-3.33-8.46-3.95-13-3.94-6.93,0-13.88,2-20.8,1.11-8.11-1.05-15.77-5.4-24.08-5A17.05,17.05,0,0,0,581.78,413.54Z" transform="translate(-5 -150.12)"/><path class="cls-3" d="M827.15,699.13c1.56,17,6.28,34.06,3.76,50.91-.88,5.88-2.65,11.72-2.11,17.66.57,6.4,3.75,12.18,6.85,17.71,3.34,6,7.05,12.31,13,15.16,7,3.36,15.1,1,22.76,1.37s15.66,4,20.1,10.87,4.61,16.91-.66,23c-3.46,4-8.59,5.77-13.55,7a107.93,107.93,0,0,1-58.56-1.5c-4.29-1.33-8.62-2.95-13.07-2.71-2.93.16-6,1.1-8.73.07s-4.73-4-6.36-6.77l-21.08-35.45c-12.22-20.57-24.59-41.45-31.36-64.69-2.14-7.35-3.7-14.88-5.26-22.39-3.44-16.58-6.67-34.9,1-49.69,4.48-8.61,12.1-14.76,19.71-20.33a351.26,351.26,0,0,1,63.66-37.12c5.63-2.53,15-6.62,20.94-2.73,5.29,3.49.35,13.78-.84,18.32-4.46,17-8.44,34.17-10.07,51.75A161.26,161.26,0,0,0,827.15,699.13Z" transform="translate(-5 -150.12)"/><path class="cls-2" d="M759.31,705.32a12.35,12.35,0,0,1-9.84-2c2.31,2.8,4.69,5.75,5.38,9.25s-.92,7.71-4.47,8.86a88.92,88.92,0,0,1,11,20.75L755.08,744q6.49,10,13,20c-3.3.47-5,4.38-4.19,7.46s3.31,5.43,5.71,7.62l-4.92,5c2,2.19,4.11,4.58,4.39,7.47s-2.29,6.19-5.28,5.6c2.07,10.21-1.54,23.16,7.17,29.41,5.62,4,13.76,2.83,20.06,5.82,8.7,4.13,10.94,16.91,4.11,23.56-4.41,4.3-11,5.65-17.28,6.44a165.35,165.35,0,0,1-84.78-11.68,41,41,0,0,1-10.94-6.23,33.7,33.7,0,0,1-7.83-10.83c-8.87-17.9-9.63-39-20.46-55.91-6.68-10.41-17.22-19.45-18.45-31.61-.53-5.2.73-10.72-1.43-15.51-2.29-5.07-8.26-9.29-7-14.68.43-1.78,1.65-3.35,1.9-5.15.53-3.82-3.2-6.76-5.32-10-3.36-5.2-2.67-11.82-1.87-17.9l3.78-28.62c.52-3.92,1-7.9.43-11.81-.64-4.15-2.53-8.42-1.06-12.39,1-2.63,3.39-5,2.87-7.74s-3.61-4.32-4-7c-.46-3.28,3.29-5.52,5.14-8.33,3.36-5.11.19-11.6-.89-17.52-2.35-12.9,6.78-26.24,19.39-31.55s27.64-3.48,39.84,2.56,21.88,15.85,30,26.43A157.91,157.91,0,0,1,741,631.45,154.85,154.85,0,0,1,747.26,656c1.12,6.72.71,13.48,2.16,20.15A136,136,0,0,0,759.31,705.32Z" transform="translate(-5 -150.12)"/><path class="cls-4" d="M751.92,221.49c1.87-1.75,2.85-4.52,5.3-5.43,3.43-1.29,6.68,1.89,9.92,3.54,6.19,3.14,15-.26,17.16-6.62,6.29,6.13,16.83,6.7,25.28,3.65s15.32-9,22-14.89c2,7,9.39,11.87,17,12.9s15.35-1.12,22.34-4.22c3.2-1.42,7.14-3,10-1,3.42,2.35,2.08,7.39,3,11.32,1.34,5.9,8,9.24,14.31,10.18S911,231.19,917,233c2.45.72,5,2,5.93,4.27,2.08,4.81-3.82,9.16-5.78,14-3.3,8.22,5,16.13,12.31,21.46s15.44,13.51,11.77,21.59L929,294.2a133.64,133.64,0,0,1,25.13,33.49,20.94,20.94,0,0,1-12.91.06A120.14,120.14,0,0,1,962.81,363c.85,2.17,1.6,4.74.25,6.68-3.3,4.72-11.4-1.59-16.86.69A103.35,103.35,0,0,1,959.37,414l-15.71-2.93c-1,5.53,1.16,11.05,3,16.39s3.22,11.24.95,16.42-9.84,8.47-14.31,4.84c2.58,6,2.58,13.47-2,18.31s-14.21,4.93-17.33-.8c.64,6,1.15,12.53-2.33,17.6s-12.64,6.68-15.8,1.47L906.18,517a23.71,23.71,0,0,0-9-9,154.36,154.36,0,0,1,11.4,30.54c1.49,5.86,1.36,14-4.72,15.7-7.72,2.18-12.67-9.13-20.65-10a47.38,47.38,0,0,1-5.62,28.8,17.32,17.32,0,0,0-8.13-6.24A59.81,59.81,0,0,1,858,600.16c1.51-4.64-6.68-7.34-10.43-4s-3.88,8.78-4.07,13.63-1.2,10.47-5.69,12.8a21.78,21.78,0,0,0-15.82-13c-3.52,4.06-3.3,9.89-2.64,15.1s1.46,10.84-1.25,15.42-10.68,6.45-13.57,2a75.37,75.37,0,0,1,6.06,36.45c-.19,2.28-.9,5-3.22,5.64-1.89.5-3.74-.78-5.23-2l-18.55-14.83a169.19,169.19,0,0,0-4.49,31.14L764,681.7a125.06,125.06,0,0,1-8.89,31.9l-13.1-30.43-7.11,14.63a50.4,50.4,0,0,1-12.78-33.88c-6.87-1.2-12.27,8.37-19,6.77-5.17-1.22-6.23-7.72-5.91-12.79a129.25,129.25,0,0,1,9.71-41.69L684.8,626.39l1.58-33.62c-6.91,3.39-16.47.1-19.46-6.7-2.11-4.8-3-12.16-8.49-12-5.74.15-7.83,9.54-13.54,9.05l-.5-13.3a38,38,0,0,0-14.47,19.08,12.4,12.4,0,0,1-8.69-6.38,27.5,27.5,0,0,1-21.53,14.1A321.39,321.39,0,0,1,616,542.18c-8.62-2.91-21.25,2.9-25.76-4.66-5.87-9.86,15.55-18.06,13.77-29.28a61.55,61.55,0,0,1-31.69-12.63,58.18,58.18,0,0,0,15.3-14.82c-9-1.89-18.5-4-25.36-9.85-5.77-4.94-9.11-12.95-6.6-20s11.95-11.54,18.7-7.89l-6.9-12a63.58,63.58,0,0,0,28.06-.21A16.83,16.83,0,0,1,592.13,410c4-6.64,13-10.1,20.68-7.91l-10.48-17.18,16-10.13c-4.85-5.66-1.37-15.71,6.08-17.56-.21-14.72,8.73-29.28,22.33-36.36l-5.59-9.18c7.61,1.63,12.9-6.93,15.5-13.95q3-8,5.9-15.94a27.71,27.71,0,0,1,3.77-7.63c1.88-2.41,4.52-4.17,7.1-5.9,7.4-4,14.33-9.49,21.27-14.15,5-3.36,9.08-7.24,11.67-12.55,4.79-9.84,11.71-23.38,25.55-20.8C737.86,221.82,746.58,226.5,751.92,221.49Z" transform="translate(-5 -150.12)"/><path class="cls-5" d="M706.38,225.13c12,2,20.74,8.92,24.81,16.57s4.24,16,4.38,24.21c0-.39-3-1.63-3.51-1.91l-3.77-2-7.55-4.05c-5-2.68-10.13-5.35-15.28-8-10.27-5.21-20.79-10.22-31.77-14.78q-4.65-1.94-9.4-3.75c-2.88-1.1-6.79-2-9.24-3.44.87-.62,3-.16,4.08-.12,1.7.06,3.41,0,5.12,0,3.43-.14,6.83-.5,10.22-.93,6.85-.86,13.67-2,20.62-2.34A55.71,55.71,0,0,1,706.38,225.13Z" transform="translate(-5 -150.12)"/><path class="cls-6" d="M646.93,224.89c-1.43-2.94-2.87-5.95-3.2-9.18s.67-6.77,3.36-8.78c3-2.26,7.28-2.05,11.07-1.5,17.52,2.54,33.81,9.94,49.25,18.17,7.62,4.07,15.17,8.41,21.5,14.14s11.4,13,13,21.2c2,10.38-1.84,21.44-9.22,29.37s-18,12.8-28.91,14.52c-6.66,1-14.24.93-19.73-3.28a14.13,14.13,0,0,1-4.89-6.29c-.62-1.84-.64-3.81-1.14-5.68-.85-3.21-2.71-6.15-4.23-9.09q-2.61-5.07-5.21-10.14-5.21-10.2-10.32-20.44t-10.08-20.44Z" transform="translate(-5 -150.12)"/><path class="cls-7" d="M652.11,232c-1.43-2.94-2.87-5.95-3.2-9.18s.67-6.77,3.36-8.78c3-2.26,7.28-2,11.07-1.5,17.51,2.54,33.81,9.94,49.24,18.17,7.63,4.07,15.18,8.41,21.51,14.14s11.4,13,13,21.2c2,10.38-1.84,21.44-9.22,29.37s-18,12.8-28.91,14.52c-6.66,1-14.24.93-19.73-3.28a14.13,14.13,0,0,1-4.89-6.29c-.63-1.84-.64-3.81-1.14-5.68-.85-3.21-2.71-6.15-4.23-9.09q-2.61-5.07-5.21-10.14-5.21-10.2-10.32-20.44t-10.08-20.44Z" transform="translate(-5 -150.12)"/><path class="cls-6" d="M893.38,154.08c4.22-2.61,9.26-5.13,13.89-3.37,5.55,2.11,7.49,9.07,8.44,15.09a259.22,259.22,0,0,1-2.26,93.35c-.57,2.71-1.22,5.51-2.89,7.67a13.77,13.77,0,0,1-5,3.78c-13.52,6.51-29.69.83-42.35-7.4-9.32-6.05-17.8-13.44-27.42-19-3.31-1.92-8.87-3.21-8.41-8.11.43-4.55,2.88-9.36,4.66-13.48a135.08,135.08,0,0,1,14.84-25.88,155.16,155.16,0,0,1,19.94-22.4A171.42,171.42,0,0,1,890.31,156C891.33,155.37,892.35,154.72,893.38,154.08Z" transform="translate(-5 -150.12)"/><path class="cls-7" d="M890.72,162.06c4.23-2.61,9.26-5.13,13.89-3.37,5.55,2.11,7.49,9.07,8.44,15.1a258.94,258.94,0,0,1-2.26,93.34c-.56,2.71-1.22,5.51-2.89,7.67a13.82,13.82,0,0,1-5,3.78c-13.53,6.51-29.7.83-42.36-7.4-9.32-6.05-17.8-13.44-27.42-19-3.31-1.92-8.87-3.21-8.41-8.11.43-4.55,2.88-9.36,4.66-13.48a135.61,135.61,0,0,1,14.84-25.88,155.16,155.16,0,0,1,19.94-22.4A171.42,171.42,0,0,1,887.65,164C888.67,163.35,889.69,162.7,890.72,162.06Z" transform="translate(-5 -150.12)"/><path class="cls-8" d="M672.2,230.65a46.34,46.34,0,0,0-26,8.32,19.75,19.75,0,0,1,18.13,4c-7.82,6-16.24,13-18.18,23.31a129.06,129.06,0,0,0,17-12.91,118.38,118.38,0,0,0-7.8,23c2.9,2,6.73.35,9.51-1.82s5.52-4.94,8.94-5.09l-.24,29.8,8.94-11.77,2.2,24.94c3.45-2.12,3.87-7.22,4.89-11.41s4.78-8.76,8.28-6.67c1.9,1.13,2.58,3.68,3.69,5.7s3.7,3.73,5.3,2.16a4.88,4.88,0,0,0,1.06-2.12l2.73-8.66a6,6,0,0,1,1.55-2.9c2.13-1.75,5,.66,6.69,3s4.1,5,6.53,3.85a6.19,6.19,0,0,0,2.36-3l4.61-9.14a19.16,19.16,0,0,0,2.47-7.1c.34-4.64-2.51-8.84-3.31-13.42a50.29,50.29,0,0,0-.83-5.5,18.5,18.5,0,0,0-2.61-5L714.58,231.9c-1.53-2.31-3-4-5.64-4.62s-4.69-.91-6.82-2.6c-3.64-2.88-6.18-7.14-10.32-9.32-6.3-3.33-12.73,1.48-18.6,3.67-5.65,2.11-11.53,3.05-17.05,5.67C661.87,222.44,668.89,225,672.2,230.65Z" transform="translate(-5 -150.12)"/><path class="cls-8" d="M896.77,175.9c-7,1-13.27,6.83-15.49,14.38l15.23-7.62c2.19-1.1,4.45-2.21,6.86-2.24a6.12,6.12,0,0,1,5.91,3.82A22.48,22.48,0,0,0,898,197.9,21.53,21.53,0,0,1,921.81,201a17.37,17.37,0,0,0-15.28,5,75.78,75.78,0,0,1,24,18.64L910.27,228c6.09,5.15,12.69,11.25,13.57,19.73-5.58.56-12.42,2.24-13.8,8.34-1.44,6.4,4.43,12,5.52,18.51a4.53,4.53,0,0,1-.44,3.32,3.92,3.92,0,0,1-2.86,1.32,36.78,36.78,0,0,1-14.64-1,23.79,23.79,0,0,0-4.27-1,17.86,17.86,0,0,0-6.36,1l-15,4.35-2.26-11.76a5.35,5.35,0,0,0-.77-2.21c-1.51-2-4.51-.2-5.67,2.09s-1.94,5.24-4.15,6.12c-2.46,1-5.13-1.49-6-4.3s-.49-5.86-.62-8.82A25.81,25.81,0,0,0,850,253.64a4.6,4.6,0,0,0-1.7-2.13c-2.12-1.16-4.32,1.59-6.66,1.68-3.67.15-5.11-5.66-8.4-7.55-1.13-.65-2.48-.82-3.45-1.75-1.82-1.75-1.29-5-.59-7.55,2.36-8.7,4.77-17.51,9.07-25.19a38.21,38.21,0,0,1,10.19-12c2.83-2.12,6-3.39,8.9-5.44,3.8-2.73,6.79-6.65,10.61-9.42a45.7,45.7,0,0,1,13-6.58,41.81,41.81,0,0,1,7.87-1.68c1.33-.15,2.67-.23,4-.25A30.36,30.36,0,0,0,896.77,175.9Z" transform="translate(-5 -150.12)"/><path class="cls-9" d="M646.87,351.06c7.46.29,12.28,8.69,11.27,15.87s-6,13.15-11.07,18.52l10,2.2c1,.23,2.16.54,2.62,1.45s0,2-.49,3L642.9,424a60,60,0,0,0,14.87-3.47l-11,41.55c-.47,1.75-.69,4.08,1,4.89,1.09.53,2.39.05,3.5-.43l8.51-3.67,2.12,24.48c5.82.93,6.35-9.46,11.89-11.45,4.53-1.63,8.58,3.46,9.83,8s2.11,10,6.46,12c3.6,1.67,7.8.06,11.66-.95s8.93-.92,10.72,2.55a9.33,9.33,0,0,1,.79,3.67l1.38,18a173.52,173.52,0,0,1,14-28.08q3.92,10.14,8.71,19.93c.94,1.92,2.14,4,4.26,4.61,3.49.94,6.32-2.84,7.49-6.17s2.46-7.38,6-8.26c4.5-1.13,7.91,4.07,8.65,8.52s.79,9.69,4.53,12.36c2.81-1.75,3.59-5.3,4.83-8.31s4.12-6.17,7.32-5.25c5,1.42,5.81,11.25,10.67,9.42,1.6-.6,2.33-2.34,3.27-3.74,3.28-4.9,11.18-6,15.76-2.29,1.48,1.2,3,2.92,4.86,2.66,2.92-.4,3.09-4.61,5.32-6.48,3.25-2.72,7.93.91,10.58,4.17s7.67,6.63,10.62,3.61c1.84-1.88,1.2-4.89.44-7.37l-4.76-15.59c5.89-.11,11.06,3.48,16.65,5.25s13.4.58,14.84-5A17.56,17.56,0,0,1,859,486a44.45,44.45,0,0,1,25.94,4.25l-8.8-23.61c-1-2.58-1.67-6,.65-7.61,1.43-1,3.38-.68,5.1-.34l12.45,2.43a29.83,29.83,0,0,1-1.66-13.4c9.88,2.12,21,2.76,29.42-2.65S933.8,426.28,926,420a130.91,130.91,0,0,0,25.06-7.79L941,402.37c3.61-8.27,18.74-7,21.55-15.54,2.6-7.88-8.43-15.24-6.38-23.27.73-2.85,3-5.06,4.5-7.61s2.07-6.19-.23-8.09c-1.57-1.29-3.9-1.27-5.65-2.33-5.9-3.56.17-13.68-4.18-18.94-2.08-2.52-5.87-3-8.41-5.06-3.68-3-3.83-8.42-3-13s2.39-9.35,1-13.82-7.36-7.89-11.05-4.9c2.54-2.09-.7-6.16-4-6.58s-6.92.67-9.82-.91c-5-2.71-3.48-10.38-7.1-14.64-5.43-6.4-16.2-.6-24.57-2.29-6.33-1.28-10.71-6.88-13.51-12.53s-4.66-11.87-8.79-16.69-11.55-7.84-17.14-4.67c-1.38.78-3,1.93-4.4,1.14a3.59,3.59,0,0,1-1.33-2L833.7,218a40,40,0,0,0-12.42,18.53c-3.61-4.77-12.11-4.8-15.78-.05-2.68,3.48-3.25,9-7.43,10.49-4.78,1.75-9-3.28-11.71-7.49s-7.75-8.83-12.08-6.2c-4.54,2.74-3.39,11.3-8.61,12.41a38.93,38.93,0,0,0-14.91-17.78l-5.24,19.57-17.68-12.17.92,15c-6.63,2.8-15.47-6-20.62-1.07-1.46,1.41-1.92,3.5-2.25,5.47a98.93,98.93,0,0,0-1,24.12c.24,2.95.57,6.1-.89,8.7-3.1,5.52-11.36,4.76-17.68,3.43s-14.82-1.42-17.15,4.45c-1.39,3.49.2,7.92-2.2,10.86-2.84,3.47-9.77,2.76-11.18,7a7.71,7.71,0,0,0,.28,4.32l4.7,18c.46,1.76,2,4.8.86,6.48-1.43,2-4.3,3.66-6.35,5A42.49,42.49,0,0,1,646.87,351.06Z" transform="translate(-5 -150.12)"/><path class="cls-10" d="M702,404.75c-3.08,5.57-5.26,13.24-.74,17.72,1.35,1.34,3.21,2.25,4,4,1.51,3.09-1.12,6.46-3,9.33-3.4,5.15-3,14.35,3.07,15.12,7.7,1,10.9-12.95,18.62-12.07,4.52.52,6.53,5.75,8.43,9.88s6.75,8.39,10.42,5.69c2.06-1.51,2.53-4.64,4.73-5.94,2.87-1.68,6.51.92,8,3.91s1.92,6.52,4.06,9.07c4.09,4.85,13.58,2.36,14.75-3.87l8.62,11.76,6.33-11.06c.93-1.63,2.36-3.5,4.19-3.14,1.34.26,2.13,1.6,3.12,2.54,5.34,5.07,17.1-1.13,20.22,5.53a23.81,23.81,0,0,1-3.14-11.92l18.85-1.49c1.88-.14,3.89-.34,5.34-1.55s1.87-3.79.32-4.87c3.44-4.57,10.75,2.23,16.2.5a10.73,10.73,0,0,0,3.82-2.63l24.12-22.39-1.4,3.47,12.45-19.23a25.52,25.52,0,0,0-11.5.27,41.82,41.82,0,0,1,6-16.42c-1.63-6.14-8.36-9.17-14.31-11.39l-60.34-22.46c-12.18-4.54-25.38-9.13-37.88-5.59-6.49,1.84-12.17,5.73-17.71,9.57L732,374.74c-4.14,2.85-8.21,6.23-12.6,8.68-3.52,2-6.12,5.21-8.68,8.34A87.65,87.65,0,0,0,702,404.75Z" transform="translate(-5 -150.12)"/><path class="cls-11" d="M705.4,410.22c-3.65-.36-7.1-1.2-10.8-1.44-6.14-.39-12.35.9-18.55,1.4s-13.4-.09-16.52-3.12c-4.18-4.07,1.42-9.4,1.5-14.25.05-2.84-1.86-5.51-2.37-8.32-1.57-8.52,9.6-16.87,8.49-25.43-.3-2.29-1.49-4.51-1.62-6.81-.37-6.47,7.39-12.3,14.91-17.32,6.35-4.25,13.42-8.63,22.61-10.11,6.93-1.12,14.63-.49,20.9-2.64,12.35-4.24,10-15.37,19.48-21.67a12.21,12.21,0,0,1,7-2.17,23.21,23.21,0,0,1,5.43,1.2c7.46,2,17.61.14,22.24-4.07,3.15,1.45,4.75,3.72,7.08,5.62A13.32,13.32,0,0,0,795.34,304c4.13-.65,6.58-3.42,10.67-4.15,6.72-1.21,11.53,3.6,18.19,4.48,10.41,1.38,21-7.07,30.74-4.68,6.51,1.59,9.1,7.53,16.31,7.12,4.31-.24,8.19-2.92,12.28-2.23a6.39,6.39,0,0,1,4.54,3.21c3.36,5.54,4,12.85,13.31,15.08,2.28.55,4.88.7,7,1.45,4.22,1.52,5,4.87,5.31,7.81l2.21,18.76c.56,4.82,1.13,9.68,0,14.53-1.47,6.27-5.75,12.28-10,18.2-1.77,2.48-3.74,5.1-7.51,6.68-2.41,1-5.32,1.48-7.87,2.35-7.71,2.62-12,8.73-20.65,9.6-5.9.59-11.25-1.59-17.07-2.1-7.62-.66-15.24,1.57-22.79,2.9-16.38,2.89-33.35,1.54-49.69.53-8.33-.52-16.71-1-25.16-.83-4.12.07-8.25.31-12.33.75a38.85,38.85,0,0,0-9.14,2.13C725.09,408.52,715.26,411.17,705.4,410.22Z" transform="translate(-5 -150.12)"/><path class="cls-11" d="M684.32,315.71l23.39,1.91a8.86,8.86,0,0,0,3.45-.18c2.87-.94,2.13-3.83.85-5.76a119.94,119.94,0,0,0-18.85-21.8c4.56-1.84,10.24-.38,14.58,1.48s8.77,4.17,14,4a227.39,227.39,0,0,1-2.53-42.26c.09-2.8.85-6.24,4.68-7.31,9.29,8.66,9,21.88,21.5,28.34l2.55-16.05c.44-2.72,2.47-6.35,6.37-5.91,2.51,7.19,5.05,14.43,9.67,21.06l13-26.62a45.88,45.88,0,0,0,3.79,13.9c.66,1.47,2,3.21,4.27,3.06s3.22-1.82,3.84-3.23L797.41,241l3.44,13.07c.32,1.23.93,2.68,2.7,3a5.37,5.37,0,0,0,4.35-1.63c4.34-4.12,5.67-11,12.93-11.57a69.47,69.47,0,0,1-10.41,31.93c11.52-5.72,13.36-18.79,26.65-22.12l-4.23,24.45a2.43,2.43,0,0,0,.56,2.55c2.05,1.64,5.67-.65,7.47-2.5a34.91,34.91,0,0,1,14.27-8.44,8.67,8.67,0,0,1,3.9-.54c3.2.52,3.19,3.6,2.48,5.84q-3.3,10.32-6.59,20.64c6.09-4.8,14.46-8.24,23.42-9.63-.06,4.39-.34,8.89-2.75,13a19.15,19.15,0,0,1-13.7,8.78c-3.93.57-8.08,0-11.9.92-5.27,1.23-8.52,4.79-12.21,7.68-13.68,10.71-37.89,14.62-46.86,27.38-1.15,1.64-2.43,3.64-5,4-2.84.36-4.93-1.54-6.82-3-4.93-3.78-12.41-5.42-19.53-6.93-5.68-1.19-11.44-2.29-17-3.6a50.77,50.77,0,0,1-9.07-3.33c-4.37-1.91-9.34-3.17-14.08-4.62l-16.41-5Z" transform="translate(-5 -150.12)"/><path class="cls-12" d="M758,402.86c-4.85,2.25-10.26,2.44-15.52,2.6L693.6,407c-3.38.11-7.21,0-9.52-2.79,3.75-5.66,7.7-12.42,6-19.27-.72-3-2.42-5.48-3.48-8.31-2.37-6.38-1.25-13.59-.09-20.34,1-5.82,2.18-12,6-16.12s9.6-5.24,14.06-8.57c9.05-6.78,10.68-20.73,11.47-33A47.47,47.47,0,0,0,751.25,307a9.27,9.27,0,0,0,5.28-2c1.78-1.63,2.45-4.29,3.1-6.77a150.83,150.83,0,0,1,7.24-21.3,15.63,15.63,0,0,1,3.26-5.41c5-4.68,12.49-.36,17.66,4.15s12.12,9.46,17.65,5.65c-.73,4.18-1.43,8.69.19,12.57s6.62,6.21,9.34,3.26c1.65-1.79,2.79-5.32,5-4.58a4.18,4.18,0,0,1,1.93,2.11c2.57,4.65,5.5,10,10.3,10.93,3.65.69,7.21-1.51,10.9-1.65,6.62-.24,13,6.14,19.31,4,2.72-.9,5.75-3.26,8-1.34a6.12,6.12,0,0,1,1.65,3c1.62,5.44,1.37,11.35,2.6,16.92s4.76,11.32,9.85,11.72c2.36.18,4.69-.83,7-.57,6.39.71,9,9.45,10.19,16.54,1,6.27,1.06,14.62-4.25,16.77-1.26.51-2.67.54-3.87,1.23-2.71,1.55-3.19,5.59-3.35,9l-.69,15a11.1,11.1,0,0,1-1.09,5.22c-1.41,2.37-4.4,2.94-6.88,2.25s-4.64-2.38-6.89-3.77a33.33,33.33,0,0,0-37.1,1.38c-5.41,4-10.59,9.84-17.07,9.29-3-.25-5.85-2-8.87-2.11s-5.9,1.18-8.88.94c-3.55-.28-6.64-2.74-9.52-5.11L776.73,390.7c-2-1.67-4-3.2-6.21-1.1-2,1.91-3.16,4.86-4.89,7.09A20.92,20.92,0,0,1,758,402.86Z" transform="translate(-5 -150.12)"/><path class="cls-13" d="M741.35,393.25c7.76-7.57,7.88-20.53,15.41-28.33,2.74-2.84,6.32-4.83,8.74-8,2.94-3.82,3.76-8.82,4.44-13.6q4-28.49,6.13-57.18c2.24,11.95,4.5,24,8.89,35.33a154.78,154.78,0,0,0,10.34,20.94q6.62,11.57,14.08,22.63c1.29,1.91,2.74,3.92,4.91,4.69,1.65.59,3.49.37,5.18.85,3.5,1,5.54,4.75,8.85,6.27,2.3,1.06,4.94.93,7.4,1.46a20,20,0,0,1,8.87,4.89c12.82,11.39,14.76,33.22,3.69,46.32s-30.2,15.31-47.35,15.35c-13.93,0-28.19-.79-41-6.19-8.19-3.45-15.5-8.63-22.74-13.78-4.94-3.5-10.42-7.58-12.27-13.64-1.6-5.23,4.64-9.7,8.38-12.18C736,397.28,739,395.59,741.35,393.25Z" transform="translate(-5 -150.12)"/><path class="cls-14" d="M740.3,652.55a74.75,74.75,0,0,0,16.6,26.83c5-1.21,4.6-8.71,9.65-9.51,4-.63,6.33,3.6,10,5,5.06,1.94,10.82-2.33,12.45-6.84s.92-9.42,2.56-13.93c4.82-13.2,28.14-20.18,26.05-33.78-.57-3.63-3-7.54-.72-10.71,2.71-3.77,9.44-3,14.13-5,9-3.81,6.79-15,3.17-22.75,4.36-2.43,10.05-1,15.12-.11s11.7.48,13.73-3.56c1.14-2.25.32-4.79.28-7.22-.15-8.41,8.72-14.73,15.09-21.29s9.78-17.88,1.25-22.16c-.4,7.13-8.07,13.54-16.56,13.83-3.77.13-7.56-.78-11.27-.14-7.31,1.27-11.26,7.75-15.49,12.95s-12.44,10.05-18.55,6.57c-4.29-2.43-4.7-7.47-6.36-11.61s-7.54-8.11-11.58-5.29c-1.64,1.14-2.23,3-2.68,4.73-3.61,14.14-6,31.63-21.88,37.34-9.46,3.4-21.86,1.46-28.86,7.81-8.86,8-2.1,23.46-12.46,30.1,1.81-1.16-11.82-8.76-13.44-9.05-.66,4.55-.75,9.16-1.59,13.73-.73,4-1.83,7.89-2.29,11.89-.64,5.63,1,10.29,3.85,15.29,2.35,4.08,4.58,8.9,7.91,12.46C733.59,664.27,737.5,657.81,740.3,652.55Z" transform="translate(-5 -150.12)"/><path class="cls-3" d="M556.62,797.51c3.91,1.77,3.43,7.9,6.75,10.61,3.64,3,9.09,0,12.24-3.42s6.27-7.87,10.94-8.19c6.16-.43,10,6.31,12.58,11.92s7.32,12.08,13.3,10.58c7.4-1.86,8.64-14.38,16.24-15l5.57,17.87a40.77,40.77,0,0,0,7.82-28.18,19.51,19.51,0,0,1-22-27.27c2.34-5,6.83-10.74,3.65-15.25-1.51-2.14-4.24-3-6.39-4.44-6.09-4.21-6.57-13.06-5.06-20.32s4.38-14.62,2.76-21.84c-.77-3.44-2.52-6.58-3.42-10-3.5-13.28,5.24-30.78-5.47-39.36-6.18,7.41-5,18.18-5.57,27.82s-5.56,21.18-15.21,21.43c-7.5.19-16.67-6.34-21.33-.44-1.26,1.6-1.62,3.72-1.95,5.73l-3.36,21c-.35,2.17-.75,4.45-2.2,6.1-4.61,5.24-13.15-.77-20.06.24-8.06,1.18-11.09,11.16-11.63,19.29-.48,7.21-.81,16.74-7.47,21.23-4,2.68-8.53,3.18-12.1,6.66-2.56,2.51-6.09,6.68-6.33,10.42-.43,6.68,8,11.15,13.1,7.09,3.66-2.9,6.85-5.87,11.91-4.95,3.79.7,7,3.2,10.29,5,3.85,2,7.44,2.81,11.35.47C548.75,800.38,552.5,795.65,556.62,797.51Z" transform="translate(-5 -150.12)"/><path class="cls-3" d="M320.68,798.77l-3.63-23.66L282.38,788c-2.65,1-5.63,2-8.23.85s-3.64-5.43-1.09-6.66l-32.19,7.12c-4.52,1-9.62,1.91-13.49-.64-6.32-4.17-4.57-14.11-.24-20.33s10.63-11.6,11.85-19.08a32.39,32.39,0,0,1-29.89-52.59c-9.92,1.13-22.52.85-26.66-8.24-1.66-3.67-1.37-7.89-1.05-11.9l3.05-37.64c.32-4,.6-8.22-1.28-11.76-1.75-3.3-5.08-5.4-7.82-7.94-12.34-11.48-12-30.62-13.61-47.4-.31-3.13-.85-6.52-3.16-8.65-5.35-5-14.1,1-21.2-.73-10.5-2.49-9.91-17.55-6.85-27.9l21.4-72.12c-2.25,3.78-8,4.06-11.67,1.56s-5.44-6.88-6.57-11.13c-3.82-14.52-1.51-29.86-2.42-44.84s-6.47-31.46-20-37.94c-4.86-2.32-10.36-3.14-15.1-5.69-11.05-5.95-15.35-19.68-16.06-32.21s1.06-25.36-2.28-37.45c-2.41-8.73-8.62-17.44-17.61-18.6-12.58-1.62-21.56,11.46-27.36,22.74l6.52-3.72a53.69,53.69,0,0,0-.94,28.15c8.4,28,39,44.21,49.49,71.44,5.06,13.06,5.27,28.13,13.22,39.66,4.41,6.39,11.22,11.83,12.07,19.55,1.23,11.17-10.8,20.49-9.86,31.7.53,6.29,5.07,11.5,6.75,17.58,3.29,11.88-4.73,23.64-12.3,33.36l-5.88,32.88c-1.29,7.19-1.81,16.23,4.4,20.08,4.81,3,11.26,1,16.53,3.09,10.55,4.11,9.31,19.25,6.27,30.16S115.29,649,126,652.57c4.74,1.6,10.23,0,14.79,2,8.27,3.74,7.44,15.45,6.51,24.48-1.2,11.63-.32,23.37.57,35l3.58,47.16c.54,7.07,1.4,14.84,6.57,19.68s16,3.22,16.68-3.84c7.14,4.94,8.91,14.48,11.85,22.66s10,16.88,18.47,15c4.14-.93,8.4-4.3,12.11-2.26,2.41,1.32,3.24,4.37,5.19,6.31,3.34,3.35,9.28,2.47,12.88-.6s5.43-7.67,7.12-12.08c3.46,14.11,17.77,24.73,32.28,23.93,3.79-.21,7.61-1.1,11.36-.46,7.56,1.28,14.63,8.59,21.69,5.58,6.81-2.9,8.63-14.06,16-14.38,8-.35,13.94,13.05,20.76,8.9a9.37,9.37,0,0,0,3.17-4,52,52,0,0,0,4.34-34c-.93-4.44-2.84-13.56-6.6-16.57-2.48-2-2.92,1.27-4.28,3.6a54.84,54.84,0,0,1-20.41,20Z" transform="translate(-5 -150.12)"/><path class="cls-9" d="M510.21,451.83c-6.4,7.36-7.12,20,.81,25.75-9.9,11.16-31.73.09-42.73,10.23-6.9,6.36-5.74,18-12.42,24.58-5.31,5.24-13.71,5.54-21,7.59a40,40,0,0,0-23.46,18c-1.11-6.35-10.59-8.05-16.08-4.43S387.42,543.7,385,549.71s-5.65,12.42-11.75,15c-4,1.66-8.45,1.36-12.72,2-11.71,1.6-21.52,10-27.54,19.89s-8.85,21.27-11.61,32.45l-1.69-18a139.54,139.54,0,0,0-9.11,66.94l20.89-27.64c2.67-3.53,5.84-7.36,10.32-7.89,7.8-.92,12.25,8.14,14.79,15.37s8.9,15.79,16.17,12.87c3.71-1.49,5.56-5.46,7.05-9.08q4.47-10.78,8.93-21.57c1.07-2.57,2.62-5.54,5.46-5.88,3.5-.43,5.79,3.36,7.09,6.55l8.59,21.06A128.38,128.38,0,0,0,428.1,630L439,664.69c.76,2.42,1.59,5,3.45,6.73,5.18,4.92,14.28.63,18.1-5.36s5.17-13.45,10.05-18.66,15.91-5.72,17.68,1.1l9.23-49c1.62-8.62,8.23-19.93,16.27-16,2.63,1.29,4.78,4.21,7.7,3.77,2.27-.33,3.63-2.57,4.66-4.57l11.13-21.54,6.85,6,1-41.67c.09-3.69,2.45-8.88,5.86-7.27q-2.55-26.16-5.09-52.32l-1.3-13.25c-.36-3.7,0-8.47-1.71-11.89-2.56-5.22-8.14-2.17-12.2-.46C523.24,443.43,515.64,445.6,510.21,451.83Z" transform="translate(-5 -150.12)"/><path class="cls-13" d="M649,237.51c7-.51,14.41-1,20.75,2.09a3.21,3.21,0,0,1,2,1.9,3.46,3.46,0,0,1-1.11,2.76l-15.15,18.66,13.33-10.77q-2.62,10.17-4.39,20.52a56,56,0,0,0,10.77-9.31c.84,11.29-1.45,22.56-3.72,33.65l7.44-13.8c.6-1.12,1.7-2.42,2.86-1.91a25.69,25.69,0,0,1-.59,10c5.33-3.43,6-11.75,11.63-14.7,0,1.81-2.56,2.68-4.11,1.75s-2.18-2.84-2.44-4.63a19.55,19.55,0,0,1,1.28-10.28,4.2,4.2,0,0,1-1.62,2.53,62.87,62.87,0,0,1,5.67-15.66c.74-1.46-.16-1.61-1.54-1.36-1.06.2-2,.69-3.13.43-2.41-.58-2.93-3.06-3.59-5.08-1-2.94-2.26-6.09-4.91-7.9s-6.39-2-9.63-1.82a98.51,98.51,0,0,0-10,1c-1.69.25-3.36.54-5,.87A39.49,39.49,0,0,1,649,237.51Z" transform="translate(-5 -150.12)"/><path class="cls-13" d="M904.84,206.11a16.82,16.82,0,0,0-9.48,7.63,21.3,21.3,0,0,1,11.42,3.86,19.06,19.06,0,0,1-11.61,6.84l10.9,13.67c-2-2.37-4.45-4.94-7.58-5.05l8.48,19.6a2,2,0,0,1,.21,1.65,1.91,1.91,0,0,1-1.13.84c-3.93,1.5-8.28,1.34-12.38,2.25a2,2,0,0,0-1.26.63,2,2,0,0,0,0,1.86,27.61,27.61,0,0,0,3.67,6.91,22.39,22.39,0,0,0-7.47-12,8,8,0,0,0-.5,4.59,30.48,30.48,0,0,1-14.69-6.54A29.85,29.85,0,0,0,883.86,249l-12.16-9.53c-.6-.47-1.26-1-1.28-1.8a2.54,2.54,0,0,1,.9-1.72,36.22,36.22,0,0,1,11.35-8.1l-5.77-5.55a1.78,1.78,0,0,1-.74-1.31,1.74,1.74,0,0,1,.73-1.07,23,23,0,0,1,6.49-3.85c1.87-.73,3.4-1.35,4.33-3.23.64-1.3.83-2.79,1.73-4,1.34-1.76,3.75-2.25,5.8-2.66A25.62,25.62,0,0,1,904.84,206.11Z" transform="translate(-5 -150.12)"/><path class="cls-11" d="M824,312.47c6.56-8.6,15.34-15.36,24.84-20.46a138.26,138.26,0,0,1,14.77-6.6c5-1.91,10.12-3.7,15.27-5.28a82.34,82.34,0,0,1,15.85-3.35,55.27,55.27,0,0,1,8.14-.17A51.84,51.84,0,0,1,938.49,294l-.07.06a55.15,55.15,0,0,0-27.68-15.36,54.11,54.11,0,0,0-15.91-1,87.61,87.61,0,0,0-15.78,3,144.41,144.41,0,0,0-15.3,5.1,120.33,120.33,0,0,0-14.52,7,90.9,90.9,0,0,0-25.13,19.84Z" transform="translate(-5 -150.12)"/><path class="cls-11" d="M851.17,313.41a116.7,116.7,0,0,1,20.77-7.8,70.46,70.46,0,0,1,11-1.73c1.85-.19,3.7-.23,5.55-.31h2.78c.93,0,1.85.06,2.78.08a77.26,77.26,0,0,1,11,1.26,108.44,108.44,0,0,1,10.83,2.55,205.27,205.27,0,0,1,20.92,7.41l0,.09c-7-2.24-14.06-4.59-21.15-6.58A120.1,120.1,0,0,0,894,304.16a57,57,0,0,0-21.85,2.2c-7.11,1.92-14,4.59-20.94,7.13Z" transform="translate(-5 -150.12)"/><path class="cls-11" d="M853,325.13q11.07,1.83,22.18,3.32l5.55.75c1.86.22,3.72.43,5.58.61s3.73.28,5.59.39,3.74.13,5.61.19q11.21.18,22.41-.27t22.37-1.48l0,.09A188.13,188.13,0,0,1,920,331.07a205.38,205.38,0,0,1-22.47-.17l-11.21-.77c-1.86-.16-3.73-.29-5.6-.41l-5.6-.5a168.93,168.93,0,0,1-22.1-4Z" transform="translate(-5 -150.12)"/><path class="cls-11" d="M841.78,313.75a76.89,76.89,0,0,1,10-7.4l2.69-1.55c.92-.5,1.82-1,2.72-1.53s1.78-1,2.67-1.58,1.78-1.07,2.67-1.6a111,111,0,0,1,11-5.81,94.92,94.92,0,0,1,11.65-4.37l0,.09c-3.78,1.73-7.54,3.42-11.27,5.18s-7.47,3.52-11.18,5.36c-1.84.93-3.66,1.91-5.43,3s-3.44,2.3-5.14,3.47c-3.43,2.3-6.87,4.58-10.36,6.82Z" transform="translate(-5 -150.12)"/><path class="cls-11" d="M731.31,327.11A170.72,170.72,0,0,0,706.17,320a75.32,75.32,0,0,0-13-1.46,79,79,0,0,0-13,1c-4.3.7-8.55,1.7-12.76,2.82s-8.33,2.53-12.45,3.95-8.17,3-12.23,4.66l-12.13,5,0-.08a241,241,0,0,1,24.08-10.44q6.18-2.24,12.55-3.9A115.69,115.69,0,0,1,680.1,319a95,95,0,0,1,26.2.24,108.91,108.91,0,0,1,25,7.79Z" transform="translate(-5 -150.12)"/><path class="cls-11" d="M715.78,331.53a162.77,162.77,0,0,0-26.88,3.39l-6.61,1.51q-3.27.9-6.53,1.86c-2.14.73-4.26,1.51-6.39,2.29s-4.15,1.78-6.23,2.68a150.43,150.43,0,0,0-44,31.16l-.07-.06a114,114,0,0,1,20.12-18.3,123.15,123.15,0,0,1,23.75-13.27c2.11-.84,4.23-1.65,6.33-2.52s4.28-1.49,6.4-2.28,4.33-1.36,6.49-2.06l6.58-1.76a109,109,0,0,1,27-2.74Z" transform="translate(-5 -150.12)"/><path class="cls-11" d="M715.31,336.77c-3.34,2-6.78,3.86-10.29,5.55-1.77.82-3.57,1.57-5.32,2.41s-3.47,1.77-5.18,2.72c-3.4,1.9-6.85,3.71-10.33,5.46s-7,3.36-10.64,4.84l0-.08c3.34-2,6.78-3.86,10.24-5.65s7-3.44,10.54-5c1.78-.8,3.54-1.63,5.27-2.53s3.4-1.9,5.11-2.83c3.46-1.81,7-3.47,10.6-4.94Z" transform="translate(-5 -150.12)"/><path class="cls-11" d="M735,326.62a5,5,0,0,0-1.91-3.47,17.7,17.7,0,0,0-3.43-2.26l-7.3-4.09-3.61-2.1q-1.82-1.06-3.66-2c-2.45-1.33-5-2.51-7.52-3.67-5.08-2.29-10.19-4.52-15.3-6.74l-15.38-6.6,0-.08q8,2.51,15.72,5.8c5.16,2.16,10.21,4.56,15.16,7.16,2.47,1.3,4.94,2.6,7.44,3.85s5,2.44,7.49,3.74,4.89,2.72,7.29,4.15a17.27,17.27,0,0,1,3.41,2.52,5,5,0,0,1,1.66,3.83Z" transform="translate(-5 -150.12)"/><path class="cls-13" d="M744,397.7c-5.74,3.47-11.51,6.95-17.7,9.18a4.55,4.55,0,0,0-2.07,1.19c-1.59,1.88-.35,5.92-2.43,7,2.11,1.62,1.13,5.25,1,8.14a21.44,21.44,0,0,0,1.59,7.64,4.14,4.14,0,0,0,.89,1.7,3.27,3.27,0,0,0,1.63.7l9.94,2.25a14,14,0,0,0,3.19.47c1.43,0,2.88-.46,4.29-.12,1.85.46,3.36,2.25,5.25,2.44,2.64.25,4.79-2.7,7.44-2.78a12.11,12.11,0,0,1,3.25.73c5.27,1.37,10.46-2,15-5.17a28.74,28.74,0,0,0,6.43-5.55c3.12-4,4.34-9.37,5.46-14.56.75,2.41,2.54,4.18,4.26,5.82l6.36,6.09a5.27,5.27,0,0,0,1.68,1.24,5.42,5.42,0,0,0,2.34.17c6.59-.27,13.13,3.75,19.61,2.38,5.86-1.23,10.35-6.6,16-8.86,4.19-1.69,8.77-1.56,13.21-2.06s9.43-2.31,10.85-7.08a17.41,17.41,0,0,0,.38-5.55c-.09-2.17-.24-4.52-1.49-6.18,1.55-2.91.2-7.31-2.62-8.53-2.26-1-4.77-.05-7.15-.39-3.94-.56-7-4.41-10.8-5.62-2.81-.89-5.78-.28-8.66.09a50.12,50.12,0,0,1-16.87-.74,24.56,24.56,0,0,1-8.08-3c-3.19-2-6.11-5.27-9.73-5.3a13.18,13.18,0,0,0-4,.88,73.07,73.07,0,0,1-13.87,3.08,15.57,15.57,0,0,1-6.45-.22,15.37,15.37,0,0,0-3.85-1.12,7.43,7.43,0,0,0-4.11,1.53,38.73,38.73,0,0,0-9,8.16,20,20,0,0,0-2.12,3.81,14.36,14.36,0,0,1-3.59,4.41A37.72,37.72,0,0,1,744,397.7Z" transform="translate(-5 -150.12)"/><path class="cls-15" d="M766.34,392.76a7.84,7.84,0,0,0,2.4,2.18l18.82,13a1.18,1.18,0,0,0,.84.29,1.12,1.12,0,0,0,.65-.6c1.77-3.06,1.88-7,3.93-9.83,1.44-2,3.65-3.27,5.59-4.78s3.78-3.57,3.85-6.07a6.54,6.54,0,0,0-4.21-5.87,12.41,12.41,0,0,0-7.44-.21c-4.82,1.1-9.32,3.58-14.23,4-2.58.25-5.29-.19-7.83.44-1.66.41-2.3,1.82-2.76,3.41A5,5,0,0,0,766.34,392.76Z" transform="translate(-5 -150.12)"/><path class="cls-7" d="M774.22,392c3,.82,4.08,4.47,5.46,7.31s4,5.67,7.27,6.06c3.77-2.88.71-9.73,3.86-13.27,2.86-3.21,9.25-1.83,11.13-5.7a4.26,4.26,0,0,0-.54-4.4,4.87,4.87,0,0,0-4.11-1.78,13.44,13.44,0,0,0-4.34,1.47c-5.24,2.3-11,2.72-16.64,3.33-1.42.15-2.85.32-4.27.53a13.42,13.42,0,0,0-3.87.81,3,3,0,0,0-1.42,4.25C768.36,393,771.92,391.37,774.22,392Z" transform="translate(-5 -150.12)"/><path class="cls-15" d="M783.17,416.15a58.76,58.76,0,0,1-24.24,17.2,6.54,6.54,0,0,0,5.49-.89,49.7,49.7,0,0,0,4.53-3.54c1.8-1.38,3.8-2.47,5.67-3.74,4.65-3.16,8.41-7.44,12.11-11.67l15.36,6.77a39.68,39.68,0,0,0,6.28,2.37c3.62.94,7.43.86,11.18.78l8.79-.18c-6.06-3.28-13.32-3.13-20-4.67A40.26,40.26,0,0,1,796,413.45a39.82,39.82,0,0,1-5.37-4c-.43-.38-.86-.78-1.27-1.18s-.71-.9-1.14-1.07c-.87-.34-.8,1.61-1,2.23A19.55,19.55,0,0,1,783.17,416.15Z" transform="translate(-5 -150.12)"/><path class="cls-11" d="M748.34,400.84c-10.45,4.35-20.92,8.66-31.22,13.34-5.15,2.31-10.3,4.68-15.3,7.33s-9.87,5.53-14.6,8.64a179.9,179.9,0,0,0-26.47,21.07,134.83,134.83,0,0,0-21.21,26.31l-.08,0a113.32,113.32,0,0,1,20.62-27A153.85,153.85,0,0,1,687,429.72c4.82-3,9.75-5.77,14.72-8.49s10-5.32,15.13-7.75c10.27-4.82,20.83-9,31.51-12.73Z" transform="translate(-5 -150.12)"/><path class="cls-11" d="M755.62,395.38a6.5,6.5,0,0,0-4.46-.57,30.72,30.72,0,0,0-4.43,1.31l-8.8,3.05c-5.87,2-11.74,4-17.63,6S708.48,409,702.62,411s-11.71,4.12-17.54,6.27l-34.93,12.91q-17.48,6.45-35,12.75l0-.09q17.22-7.08,34.7-13.56c11.63-4.35,23.34-8.46,35.09-12.49,5.88-2,11.75-4,17.6-6.09l17.54-6.28c5.86-2.06,11.76-4,17.66-5.93,2.95-1,5.91-1.88,8.87-2.83a26.51,26.51,0,0,1,4.54-1.16,6.5,6.5,0,0,1,4.55.8Z" transform="translate(-5 -150.12)"/><path class="cls-11" d="M750.9,412.36Q740,424,728.24,434.85l-11.85,10.7c-2,1.77-3.95,3.57-5.91,5.37s-3.93,3.6-5.89,5.39c-7.86,7.17-15.85,14.22-24.05,21S664,490.74,655.47,497.08l-.06-.07,24.52-20.43c8.13-6.85,16.27-13.69,24.32-20.65,4-3.48,8-7,11.92-10.61s7.7-7.34,11.54-11l23.12-22Z" transform="translate(-5 -150.12)"/><path class="cls-11" d="M743.68,415.69q-12.15,6.56-23.92,13.7L713.88,433q-2.91,1.86-5.78,3.76c-1.9,1.3-3.77,2.64-5.63,4s-3.66,2.79-5.49,4.18c-7.23,5.67-14.2,11.66-21,17.84s-13.32,12.65-19.68,19.3l-.07-.07A222,222,0,0,1,675.35,462a242,242,0,0,1,21.32-17.55c1.87-1.34,3.75-2.66,5.6-4s3.78-2.63,5.65-4,3.79-2.6,5.68-3.92l5.75-3.82a202.34,202.34,0,0,1,24.29-13.12Z" transform="translate(-5 -150.12)"/><path class="cls-11" d="M760.85,411.25q-6.39,11-13.4,21.52c-2.36,3.51-4.8,7-7.13,10.49s-4.65,7.06-6.93,10.62c-4.57,7.1-9.2,14.18-14,21.13s-9.71,13.83-14.81,20.58l-.08,0q6.94-10.62,14.1-21.08c4.74-7,9.58-13.92,14.39-20.87,2.4-3.47,4.79-7,7.08-10.51s4.49-7.16,6.75-10.73q6.81-10.68,14-21.15Z" transform="translate(-5 -150.12)"/><path class="cls-11" d="M757.65,407.51q-17.13,6.66-34.19,13.46c-5.69,2.26-11.4,4.49-17,6.89-2.82,1.19-5.62,2.43-8.42,3.67l-8.34,3.85c-11.09,5.2-22.07,10.61-33,16.08S634.83,462.59,624,468.3l0-.08q15.84-9.32,32.26-17.61c10.92-5.57,22-10.75,33.25-15.7l16.84-7.35c2.82-1.2,5.62-2.44,8.42-3.68l8.45-3.62q17-7,34.45-12.84Z" transform="translate(-5 -150.12)"/><path class="cls-11" d="M823.12,387.49q15,.33,30,1.5l7.49.67c2.5.24,5,.47,7.49.67,5,.44,10,.79,15,1.14,10,.73,20,1.55,30,2.64s19.92,2.3,29.84,3.79v.1q-15-1.39-29.93-2.94L883.09,392c-5-.51-10-1-15-1.33s-10-.6-15-.89q-15-.94-30-2.18Z" transform="translate(-5 -150.12)"/><path class="cls-11" d="M833.4,402a176.79,176.79,0,0,1,41,7.19c1.67.5,3.29,1.12,4.93,1.71s3.29,1.13,4.9,1.81c3.21,1.35,6.45,2.62,9.58,4.12s6.28,3,9.39,4.54c1.57.75,3.07,1.64,4.6,2.46s3.07,1.64,4.56,2.55l4.49,2.64c1.5.89,3,1.85,4.43,2.77,3,1.82,5.82,3.81,8.7,5.76,5.68,4,11.3,8.12,16.71,12.5,2.74,2.14,5.42,4.36,8.09,6.58s5.31,4.5,7.92,6.79q7.89,6.81,15.58,13.85l-.06.07-16-13.41q-8-6.66-16.17-13.13c-5.43-4.32-11-8.47-16.62-12.53s-11.41-7.9-17.37-11.45a159.3,159.3,0,0,0-37.93-16.89,228.65,228.65,0,0,0-40.82-7.83Z" transform="translate(-5 -150.12)"/><path class="cls-11" d="M844.73,400.13a212.93,212.93,0,0,1,38.28,8c6.25,1.86,12.44,3.94,18.64,5.94l18.62,6c12.41,4,24.76,8.2,37,12.73,6.12,2.24,12.2,4.59,18.26,7s12.11,4.83,18.11,7.39l0,.09-18.31-6.85-18.35-6.73c-12.25-4.44-24.51-8.88-36.82-13.15-6.18-2.09-12.33-4.23-18.56-6.16s-12.48-3.75-18.75-5.5a315.33,315.33,0,0,0-38.08-8.62Z" transform="translate(-5 -150.12)"/><path class="cls-11" d="M823.9,397.53a151.71,151.71,0,0,1,15.94,10q7.68,5.4,15.28,10.92l15.09,11.18c5,3.73,10.16,7.32,15.2,11,10.14,7.34,20.21,14.8,30,22.6q7.38,5.82,14.53,11.91c2.41,2,4.77,4.06,7.15,6.1s4.67,4.17,7,6.25l-.06.07c-4.84-4-9.65-8-14.52-11.9-2.44-2-4.88-3.92-7.35-5.85L914.83,464Q900.06,452.4,885.11,441c-5-3.76-10-7.54-15.09-11.19s-10.24-7.21-15.35-10.81-10.17-7.31-15.24-11-10.19-7.27-15.57-10.46Z" transform="translate(-5 -150.12)"/><path class="cls-11" d="M830.62,396.5c10.37.44,20.67-.75,31-1.64a264.61,264.61,0,0,1,31.1-.85,163.69,163.69,0,0,1,30.86,4.05q7.6,1.77,15,4.23T953.05,408l0,.08q-7.26-2.79-14.67-5.09c-5-1.52-10-2.81-15-4a201.93,201.93,0,0,0-30.67-4.48,136.35,136.35,0,0,0-15.53-.22c-5.17.17-10.32.78-15.47,1.32-10.29,1-20.72,2-31.08,1Z" transform="translate(-5 -150.12)"/><path class="cls-16" d="M715.46,339.9c1.4,1.28,1.82,3.16,2.41,4.88A24.62,24.62,0,0,0,733,359.5a15.24,15.24,0,0,0,8.77.8c3.36-.87,5.89-3.31,8.55-5.37s6.07-3.9,9.46-3.18c-3.24-4.18-3.75-9.6-6.12-14.23-4.3-8.4-15.25-13.51-25.37-11.85-5.54.91-10.46,3.56-14.82,6.7-2.26,1.62-4.39,3.38-6.49,5.16-.31.27-2.63,2-2.44,2.27.32.46,2.47-.58,2.79-.7C709.9,338.12,713.34,337.94,715.46,339.9Z" transform="translate(-5 -150.12)"/><path class="cls-16" d="M815.08,321.13A16.71,16.71,0,0,1,819,316a17.56,17.56,0,0,1,5.72-2.77,31.52,31.52,0,0,1,9.71-1.9c10,0,19,7.93,28.88,6.69a54.5,54.5,0,0,0-11.72,17.07c-2.06,4.74-3.69,10.09-7.91,13.07-4.76,3.35-11.2,2.54-16.9,1.41s-12-2.39-17.1.31c.33-.17.35-3,.39-3.42.11-1.19.2-2.39.26-3.58a51.36,51.36,0,0,0,0-6,18.25,18.25,0,0,1,0-3.62,23.5,23.5,0,0,1,1.65-5.35A62.67,62.67,0,0,1,815.08,321.13Z" transform="translate(-5 -150.12)"/><path class="cls-17" d="M720.37,344.84a18.88,18.88,0,0,0,13,12.35c6.31,1.65,13.87-.52,17.38-5.59a14.05,14.05,0,0,0,2.29-6.15c.93-7-3.08-14.34-9.79-17.89A22.78,22.78,0,0,0,726.66,326c-1.74.49-3.9,1.12-4.93,2.6-1.24,1.78-1.66,4.31-2,6.33A21.37,21.37,0,0,0,720.37,344.84Z" transform="translate(-5 -150.12)"/><path class="cls-18" d="M816.66,341.3a13.16,13.16,0,0,0,3.11,3.12,14.28,14.28,0,0,0,5.18,2c8,1.64,17.22-.73,22-7.37,3.47-4.82,4.18-11.32,2.56-17a14.51,14.51,0,0,0-2.2-4.75,13.8,13.8,0,0,0-4-3.55,20.64,20.64,0,0,0-28.76,7.55,14.24,14.24,0,0,0-2.09,5.45,22.22,22.22,0,0,0,.63,6.75A21.57,21.57,0,0,0,816.66,341.3Z" transform="translate(-5 -150.12)"/><path class="cls-19" d="M724,331.55a20.51,20.51,0,0,0-2,7.25c-.13,3.55,1.42,6.93,2.95,10.19,1.07,2.27,2.2,4.62,4.27,6.22,4.3,3.32,11.49,2,15.21-1.92s4.42-9.57,3.28-14.59a25.55,25.55,0,0,0-7.63-13c-2-1.87-4-3.41-7-3.38a5.62,5.62,0,0,0-4.4,2A25.57,25.57,0,0,0,724,331.55Z" transform="translate(-5 -150.12)"/><path class="cls-19" d="M820.43,337.31c2.25,4.4,6.51,7.69,11.07,7.74,5.61.06,10.62-4.87,12.19-10.82s.15-12.52-2.79-17.85a12.36,12.36,0,0,0-3.14-4,7.8,7.8,0,0,0-5.08-1.3,22.57,22.57,0,0,0-7.74,1.09c-4.53,1.76-6,7.38-6.51,12.18A22.89,22.89,0,0,0,820.43,337.31Z" transform="translate(-5 -150.12)"/><path class="cls-16" d="M730,327.26c-6.7.85-12.88,5.07-18.57,9.93-2.91,2.48-9.54,2.93-11.64,6.71,2.93-10.26,12.54-16.37,19.74-20.6a22.69,22.69,0,0,1,23.08-.12,26.26,26.26,0,0,1,7.85,6.93,29.06,29.06,0,0,1,3.08,5,26.76,26.76,0,0,1,1.15,2.74,8,8,0,0,1,.79,2.67c-.28,1.38-2.13-.78-2.48-1.25a39.18,39.18,0,0,0-3.73-4.39,28.32,28.32,0,0,0-8.65-6A20.48,20.48,0,0,0,730,327.26Z" transform="translate(-5 -150.12)"/><path class="cls-16" d="M840.27,318.2c3.66,1.41,7.24,3.45,11.11,3.54a22.84,22.84,0,0,0,8-1.76l6.39-2.24a57.4,57.4,0,0,0-21.52-9.19c-8-1.59-16.61-1.26-23.78,2.91a24.18,24.18,0,0,0-7.24,6.53,17.83,17.83,0,0,0-2.55,4.27c-.34.93.05,1.1.84.86,2.57-.77,4.64-3.1,7-4.4a22,22,0,0,1,10.12-2.67A30.06,30.06,0,0,1,840.27,318.2Z" transform="translate(-5 -150.12)"/><path class="cls-13" d="M741.59,341.73a2.29,2.29,0,0,0,1.58,2c-.19-.07,1.05-3.47,1.1-3.84a13.56,13.56,0,0,0-.1-4.07c-.1-.54.08-2.47-1.63-1.71-1.48.66-1.25,1.94-1.29,2.88A22.68,22.68,0,0,0,741.59,341.73Z" transform="translate(-5 -150.12)"/><path class="cls-13" d="M837,330.44a2.29,2.29,0,0,0,1.78,1.77c-.18,0,.66-3.57.66-3.94a13.2,13.2,0,0,0-.55-4c-.16-.53-.2-2.47-1.81-1.52-1.4.82-1,2.07-1,3A22.71,22.71,0,0,0,837,330.44Z" transform="translate(-5 -150.12)"/></svg>