<svg id="Lager_1" data-name="Lager 1" xmlns="http://www.w3.org/2000/svg" viewBox="0 0 375 381.31"><defs><style>.cls-1{fill:#1a431f;}</style></defs><path class="cls-1" d="M375,197.74v380.5a72.44,72.44,0,0,1-10.19-1.52c-24.07-5.42-43.85-17.08-68.22-19.17-36.76-3.14-59.83-5.55-86.25-5.7-53.8-.31-107.39,17.06-160.62,6.94C33.2,555.65,16.58,551,0,550.05V211.16a147.26,147.26,0,0,0,38.35-2.81c25.24-5,49.83-8.46,75.26-5.34,13.66,1.67,26.35,2.36,39.93,4.88C192,215,214.09,220.94,245,217.7,288.73,213.12,332,192.64,375,197.74Z" transform="translate(0 -196.93)"/></svg>