<svg id="Lager_1" data-name="Lager 1" xmlns="http://www.w3.org/2000/svg" viewBox="0 0 956.31 874.97"><defs><style>.cls-1{fill:#e9ffe6;}
.cls-2{fill:#7c5b49;}
.cls-3{fill:#ccc8c4;}
.cls-4{fill:#665751;}
.cls-5{fill:#bbada4;}
.cls-6{fill:#564643;}
.cls-7{fill:#d8d5d2;}
.cls-8{fill:#353231;}
.cls-9{fill:#60483d;}
.cls-10{fill:#4f3c3a;}
.cls-11{fill:#eae9e8;}
.cls-12{fill:#cecbc8;}
.cls-13{fill:#725244;}
.cls-14{fill:#7f5f50;}
.cls-15{fill:#725346;}
.cls-16{fill:#c1c1c1;}
.cls-17{fill:#706d6d;}
.cls-18{fill:#7a7a7a;}
.cls-19{fill:#42312d;}
.cls-20{fill:#493835;}
.cls-21{fill:#564036;}
.cls-22{fill:#302825;}
.cls-23{fill:#0c0c0c;}
.cls-24{fill:#eaeaea;}
.cls-25{fill:#c6c4c4;}

</style></defs><path class="cls-1" d="M347.21,576.11c3,36.59,12.65,75.43,22.52,113.49,11.63,44.84,24.29,91,44.31,131.21,24.37,48.89,57.7,84,89.11,100.57s61.05,16,87.22,6.42c8.76-3.22,17.26-7.43,26.81-7.93,11-.57,23.12,3.84,34.82,6.49,60.63,13.71,110.58-20.1,151.1-68.46,26.63-31.78,50.43-70.28,82.87-88.67,22.9-13,50-15.84,68.61-38.61,25.84-31.54,31-102.06,12.64-172.35S908,421.85,867.28,396.65C801.6,356,749.7,418.54,683.94,374.16c-15.58-10.52-31.22-26.71-46.69-34.54-29.9-15.13-53.77,3.17-74.65,22.79a834.25,834.25,0,0,0-81.11,88.36c-10,12.59-20,25.73-32.91,31.59-8.94,4.08-19.05,4.52-29.09,4.94-17.39.74-36.82-2-53.22,2.28-11.36,3-17,27.68-18.95,45.88A221.91,221.91,0,0,0,347.21,576.11Z" transform="translate(-21.85 -59.56)"/><path class="cls-2" d="M430.12,193.31c2.76-25.18-1.67-50.81-6.09-76-1.52-8.72-3.16-17.73-8-25.24-6.86-10.53-20.07-16.64-32.22-14.9C385,88,390.3,98.06,394.31,108.34c8.86,22.66,11.53,46.85,15.62,70.49,2,11.85,4.43,23.7,8.2,35.2a129.82,129.82,0,0,0,6.56,16.38c.89,1.85,2.23,6.13,4.31,6.94,2.92,1.14.43-3,0-4.52C425.5,219.83,428.7,206.19,430.12,193.31Z" transform="translate(-21.85 -59.56)"/><path class="cls-3" d="M90.73,850.93c2.63,2,6,2.78,9.25,3.48,15,3.24,30.14,6.5,45.46,6s31-5.28,41.94-16c6.52-6.45,11-14.65,15-22.89A327,327,0,0,0,219,780.3c2.65-8.1,4.83-17.55.15-24.68A404.72,404.72,0,0,1,162.82,798,405.82,405.82,0,0,1,100,830c-3.14,1.26-6.28,2.52-9.47,3.64-2.11.73-5.61,1.42-6.81,3.57C81.74,840.78,88,848.83,90.73,850.93Z" transform="translate(-21.85 -59.56)"/><path class="cls-2" d="M673.3,852.72q-8-9.6-16-19.15a14.13,14.13,0,0,1-1.9,1.08c-11.56,5.6-25.17-.88-35.88-7.94a355.87,355.87,0,0,1-46.3-36.9c-26.12-24.23-49.51-51.2-73.75-77.25-6.13-6.59-12.28-13.1-18.58-19.49-2.15-2.19-6.82-5.68-8.1-8.69-25.68-20.26-47.68-45-69.44-69.63-6.52,7.71-12.4,16.1-20.17,22.5-6.59,5.42-14.3,9.26-21.85,13.24A497.31,497.31,0,0,0,194,794.25c-15,20.26-30.88,43.4-55.55,48.53-10.15,2.09-20.67.78-30.87-1-18.07-3.15-36.57-8.1-50.7-19.81C32.47,801.78,27,767.1,23.14,735.58c-.93-7.63-1.88-15.39-.84-23,1.44-10.51,6.5-20.1,11.36-29.53C62.23,627.67,86.54,570.2,110.79,512.8c13.74-32.52,27.77-66.54,25.59-101.78-1.36-22-8.69-45.7,2.07-64.91,6.36-11.39,17.89-18.67,28.08-26.79C216.57,279.54,244.44,210,305.19,190c16.42-5.41,33.93-6.54,51.23-6.35,24.37.22,49.78,3.35,70.06,16.84,19.44,12.91,31.92,33.74,48.39,50.22,29.53,29.56,71.89,45.25,96.76,78.8,13.37,18,20.53,39.84,31.55,59.41,19.93,35.38,51.71,62.31,82.8,88.43Z" transform="translate(-21.85 -59.56)"/><path class="cls-4" d="M118.78,766.48c-11.93,14.2-22.86,30.53-24.29,49-.77,10,2.57,21.69,11.88,25.37,10.83,4.29,22.4-4.53,34-4.68,5.43-.07,10.89,1.77,16.23.75,6.74-1.28,12.9-7,19.54-5.28,4.3,1.14,7.54,5.29,12,5.62,5.56.41,9.5-5.19,12-10.18,17.71-35.59,23.25-75.81,28.55-115.21l-8.79,5.41-2.59-10.57a2.5,2.5,0,0,0-1.08-1.82c-.91-.42-1.89.35-2.67,1-4.65,3.86-11.14,4.41-17.18,4.79a83.06,83.06,0,0,0-7.26-30.45c-8-.46-15,5.33-20.43,11.32A117.22,117.22,0,0,0,157,706.87c-2.91,4.52-5.34,8.86-6.08,14.24-1.54,11.13-10.66,20.44-17.71,28.69C128.45,755.39,123.51,760.85,118.78,766.48Z" transform="translate(-21.85 -59.56)"/><path class="cls-5" d="M38.66,685.55c-3.55,5.26-7.13,10.56-9.65,16.39a51.9,51.9,0,0,0-3.34,30.14c.43,2.21,1.74,4.95,4,4.63,1.93-.27,2.68-2.62,3-4.54,1.09-7.75,1.15-15.76,3.91-23.08,1.14-3,2.73-5.87,4-8.85,2-4.55,4-10.16,4.23-15.15,0-1.15.08-3.55-1.42-3.83C41.47,680.91,39.47,684.35,38.66,685.55Z" transform="translate(-21.85 -59.56)"/><path class="cls-5" d="M163.63,734.79c2.27,6.44,2.05,13.45,1.55,20.25-.79,10.71-2.76,22.41-10.93,29.37a22.32,22.32,0,0,1-16.74,5.12c-5.11-.58-10-2.94-15.15-2.78-2,.07-4.06.52-6,0-4.61-1.11-6.61-7-5.22-11.56s5.07-7.93,8.6-11.09l12.11-10.86a11.15,11.15,0,0,0,4.69-9.79l1.33-16.28c.16-2.06.51-4.78,2.52-5.91,2.2-1.23,5.37.39,7.7.7,4.25.57,7.12,1.13,10.3,4.32A22.73,22.73,0,0,1,163.63,734.79Z" transform="translate(-21.85 -59.56)"/><path class="cls-2" d="M225.21,124.57c17.32,15.54,29.85,35.59,42.14,55.36,4.26,6.83,8.61,13.93,9.74,21.9a29.83,29.83,0,0,1-13.6,28.95c-5.8-8.1-8.18-18.07-11.62-27.42-7.6-20.61-20.49-38.65-32.05-57.14a222.7,222.7,0,0,1-15.71-28.77,113.55,113.55,0,0,1-5.39-15c-.5-1.77-2.17-5.47-1.2-7.24,1.36-2.48,2.12,1.77,2.77,3.07C205.75,109.19,216.34,116.61,225.21,124.57Z" transform="translate(-21.85 -59.56)"/><path class="cls-6" d="M192.08,191.52c-5.85-11.48-10.62-23.66-12.36-36.42-1.58-11.56-.65-23.3.75-34.88a443,443,0,0,1,8.92-49.81c4.16-.71,7.35,3.54,9.22,7.32,8.91,17.93,13,38,21.95,55.86,8.51,17,21.11,31.61,31.46,47.58s18.68,34.45,16.93,53.4-16.53,37.67-35.55,38.25q-1.18-10.68-2.36-21.35c-.6-5.39-.93-8-4.75-12a201.76,201.76,0,0,1-23.72-29.83C198.75,203.79,195.39,197.69,192.08,191.52Z" transform="translate(-21.85 -59.56)"/><path class="cls-6" d="M355.66,130.4c1.59-23.87,12-47,9.87-70.84a63.46,63.46,0,0,1,44.92,32.28c5.05,9.5,7.56,20.12,9.63,30.68,2.17,11.12,3.91,22.44,3.18,33.74-.86,13.35-5.12,26.21-9.35,38.9q-8.54,25.65-17.09,51.31c-8.49-3.58-16.95-7.44-24.65-12.54-6.45-4.27-14.61-10.38-17.22-18-2-5.95,1.66-12.67,2.48-18.57,1.44-10.39.66-21-.22-31.42C356.2,154.12,354.87,142.26,355.66,130.4Z" transform="translate(-21.85 -59.56)"/><path class="cls-7" d="M231.62,393.79c-2.13,7.62-4.21,15.34-4.37,23.24-.1,4.63.09,10.11-3.64,12.85-3,2.18-7.51,1.71-10,4.47-3.16,3.58-.32,9,.5,13.71,2.33,13.41-13.24,24.07-13.61,37.67-.23,8.38,5.45,16.08,5.16,24.46-.16,4.78-2.27,9.28-3,14-3.59,23.62,26.9,45,18,67.18-3.61,9-13.13,15-15.24,24.47-1.42,6.33.82,13.06-.66,19.38-2.38,10.18-13.52,16.26-16.65,26.23-2.74,8.7,1.17,18.71-2.6,27-2.87,6.32-9.5,10-13.51,15.72-2.57,3.64-4,7.95-5.35,12.19l-10.65,33c-2.93,9.1-6.22,18.72-13.61,24.78a25.6,25.6,0,0,1-25.52,3.76,112.8,112.8,0,0,0-7.46,40.67c0,3.86.51,8.27,3.64,10.52,2.65,1.91,6.25,1.56,9.49,1.13l43.84-5.82c-5.12,11.27-18.7,15.8-31,17.23-26.87,3.12-55.25-3.32-76.51-20s-34.43-44.15-31.53-71.05c2.22-20.56,13.11-39.2,17.28-59.45,1.6-7.76,2.2-15.69,3.59-23.49,3-16.89,9.69-32.88,16.6-48.58,22.85-51.9,49-102.72,64-157.39,8.85-32.16,14-66,30.55-95,1.6-2.79,3.34-5.67,3.53-8.88.17-2.74-.82-5.42-.94-8.16-.18-3.93,1.42-7.72,3.21-11.24,16.08-31.53,48.26-51.31,70.38-78.95,6.85-8.55,12.86-18,21.5-24.74,5.47-4.26,24.22-13.78,28.1-3,1.81,5-1.17,10.52-3,15q-4,9.82-7.92,19.72-15.69,40-28.79,81Q238.16,370.48,231.62,393.79Z" transform="translate(-21.85 -59.56)"/><path class="cls-7" d="M504.48,400.09c-3,3.92-6.67,7.68-7.33,12.54-1.08,8.05,6.51,14.33,13.24,18.86-4.11,6.73-8.15,15.72-3.22,21.88,2.07,2.6,5.29,3.93,8.21,5.5a44.24,44.24,0,0,1,20.36,23.61c1.69,4.65,3.24,10.31,7.92,11.89,6.28,2.11,13.84-4.92,19.22-1.05,2.34,1.68,3.07,4.79,3.62,7.63l8.69,44.43c1.07,5.48,2.39,11.4,6.63,15,2.21,1.9,5.12,3.06,6.75,5.47a12.56,12.56,0,0,1,1.74,5.9c.89,8.53-.22,17.26,1.48,25.67s7.36,17,15.85,18.22l-2,17.77c-.24,2.16-.46,4.43.38,6.44.94,2.22,3.06,3.74,5.24,4.77,9.07,4.29,19.69,2,29.61.49s21.41-1.58,28.37,5.65c3.84,4,6.06,10,11.25,11.9,6.63,2.45,13.4-3.41,17.06-9.45,5.85-9.65,8.52-20.84,11.1-31.83,4.71-20,9.45-40.22,10.36-60.79s-2.21-41.77-12.35-59.68c-19.25-34-59.51-50.26-84.37-80.4-15.1-18.31-23.82-40.88-34.06-62.3s-23-42.86-43.08-55.47c-10.33-6.48-22.27-10.39-31.73-18.09-7.19-5.85-13.24-14-22.26-16.15a124,124,0,0,0,10.06,52.25,30.12,30.12,0,0,1,2.65,7.86,41.76,41.76,0,0,1-.19,7.66A35.61,35.61,0,0,0,506,350.64c1.58,4.19,4.31,7.7,6.17,11.74,3,6.55,1.56,15.56-.23,22.23A45.67,45.67,0,0,1,504.48,400.09Z" transform="translate(-21.85 -59.56)"/><path class="cls-8" d="M146.36,738c1.64,4.21,1.32,8.9.84,13.39-.45,4.25-1,8.57-2.84,12.45s-5,7.34-9.06,8.51a22.88,22.88,0,0,1-7.75.37l-14.52-1,12.9-24.25c1.95-3.68,1.85-6.25-.81-9.45-1.77-2.13-2.78-4.56-.71-6.94,3.73-4.29,11.54-2.8,15.79-.23A14.78,14.78,0,0,1,146.36,738Z" transform="translate(-21.85 -59.56)"/><path class="cls-8" d="M31.6,706.3c-3.25,7.26-4.34,15.88-1.08,23.13.71,1.57,2.18,3.29,3.81,2.72,1.11-.39,1.6-1.67,2-2.8a217.66,217.66,0,0,0,6.58-24.83,83.55,83.55,0,0,0,1.44-13c.12-5.11-4.63,1.93-5.68,3.32A59.1,59.1,0,0,0,31.6,706.3Z" transform="translate(-21.85 -59.56)"/><path class="cls-9" d="M223.18,764.73l5.26-8.74a3.71,3.71,0,0,1,1.7-1.75c2.3-.83,4.43,3.08,6.67,2.1a19.51,19.51,0,0,1,2.88-11.14,9.71,9.71,0,0,0,5.29,3.93,44,44,0,0,1,11.2-20.88,17.13,17.13,0,0,0,9.43,6.37c2.21-3.61,2.39-8.17,4.52-11.83s8.08-5.73,10.35-2.15c2.48-2.41,2.73-6.25,4.25-9.35s6.23-5.32,8.21-2.49l7.47-15.52c1.72,1.8,4.12,3.77,6.42,2.82a6.33,6.33,0,0,0,2.13-1.73l10.83-11.87A19.51,19.51,0,0,0,324.5,692l7.75-16.56,5,4.45c1.67-2.1,1.76-5,2.63-7.53s3.47-5,5.94-4a18.63,18.63,0,0,0,2,1.07c1.82.54,3.55-1.22,4.18-3s.72-3.81,1.78-5.38,3.79-2.23,4.73-.58a16.74,16.74,0,0,1,14-9.17c2-7.09,14.27-8.23,14.56-15.62-2.56.31-2.38-3.92-4-6-1.31-1.69-3.82-1.65-5.94-1.45-10.63,1-21.4,2.3-31.93.55s-21-7-26.37-16.29a181.35,181.35,0,0,1-83.56,108.88c-4.34,2.51-10.56,5-10.63,10.8-.08,6.52-.75,12.92-1.14,19.43-.13,2.21-.22,4.43-.29,6.64,0,1.09-.06,2.17-.08,3.26C223.2,762.17,223.53,764.17,223.18,764.73Z" transform="translate(-21.85 -59.56)"/><path class="cls-2" d="M171.52,370.44c-2.93,1.38-5.42,4.16-5.48,7.39,0,2.53,1.33,5.27,0,7.44-.78,1.32-2.31,2-3.59,2.8-3.63,2.37-5.57,6.77-5.78,11.1s1.1,8.59,2.84,12.55c.95,2.16,3.16,4.65,5.2,3.46s2.1-4.94,4.3-4.6a2.68,2.68,0,0,1,1.5,1c3,3.34,4.79,8.87,9.28,9.19a8.46,8.46,0,0,0,5.31-1.93c3.32-2.32,6.27-5.95,5.86-10-.3-2.86-2.25-5.38-2.37-8.25-.22-5.22,5.42-8.74,7.09-13.69,1.45-4.31-.44-9.21-3.67-12.42a22.65,22.65,0,0,0-10.24-5.77C178.73,368,174.3,369.13,171.52,370.44Z" transform="translate(-21.85 -59.56)"/><path class="cls-10" d="M206,191.88a10.36,10.36,0,0,0,7.64-3.51,135.15,135.15,0,0,0-16.1-25.76c3.25-1.58,4.9-5.43,4.87-9.05s-1.43-7.06-2.9-10.36a13,13,0,0,1-1.54-5.57c.07-1.94,1.35-4,3.27-4.23.61-.08,1.22,0,1.82,0,2-.21,3.36-2.15,3.61-4.1a13.35,13.35,0,0,0-1-5.76,278.38,278.38,0,0,1,12.56,28.65,10,10,0,0,0,2.35,4.15,11.15,11.15,0,0,0,2.87,1.63,37.91,37.91,0,0,1,19.95,22.63c2.71,8.55,2.81,21.09-2.66,28.74-2.46,3.43-6.6,1.45-9.83.25a59.74,59.74,0,0,1-12.8-6.62A58.42,58.42,0,0,1,206,191.88Z" transform="translate(-21.85 -59.56)"/><path class="cls-10" d="M394.89,132.69l-7.21-.64.66-13.46a8.79,8.79,0,0,0-.64-4.7c-.78-1.4-2.72-2.29-4-1.38-.91.61-1.34,1.9-2.41,2.16-1.53.38-2.48-1.59-2.81-3.13l-2.26-10.68a147.93,147.93,0,0,1-10.68,10.57,33.4,33.4,0,0,0,1,21.86c.76,1.86,3.27,3.83,4.35,2.14a142.34,142.34,0,0,0-12.17,22.28,4,4,0,0,0-.47,2.66c.3,1,1.36,1.66,2,2.54,1.67,2.31.25,5.45.73,8,.56,3,3,5.25,5.62,6.51,4.3,2,11.36,3.24,15.8.84,3.38-1.83,4.73-5.65,5.6-9.16,1.21-4.91,1.77-10,3-14.88,1-4.1,2.23-8.16,3.57-12.16C395.31,139.71,399.32,133.08,394.89,132.69Z" transform="translate(-21.85 -59.56)"/><path class="cls-11" d="M52.21,702.85a121.73,121.73,0,0,1-3.44,15.95c-2,6.29-5.15,12.16-7.38,18.37-11.65,32.47,6.64,72.59,38.8,85.08,2.5,1,5.48,1.75,7.73.28,1.53-1,2.3-2.83,3-4.54q3.42-8.82,6.27-17.84c.6-1.88,1.17-3.89.62-5.77-.75-2.6-3.34-4.12-5.23-6-5.48-5.58-5.06-14.49-4.27-22.27,3.87-38.34,7.76-76.74,14.85-114.62,4-21.62,9.12-44.12,3-65.26a10,10,0,0,0-2.43-4.71c-2.66-2.44-6.78-1.27-9.24.85-3.35,2.87-4,7.6-4.65,11.7a38.76,38.76,0,0,1-9.65,20.54c-5.87,6.5-9,14.49-11.76,22.72-3.31,10-6.17,20.25-8.75,30.5Q55.32,685.18,52.21,702.85Z" transform="translate(-21.85 -59.56)"/><path class="cls-11" d="M519.13,403.4c.59,6.46,4,12.41,4.51,18.87.4,5.4-1.28,10.91-.12,16.2,1.49,6.73,7.15,11.56,11.77,16.69a65.73,65.73,0,0,1,10,14.66,70,70,0,0,0,11.1-21.06,17.18,17.18,0,0,0,1.11-7,20.41,20.41,0,0,0-2.49-6.81,300.61,300.61,0,0,1-18.82-46.71,67.38,67.38,0,0,0-3.45-9.47c-1.1-2.3-3.4-7-6.1-7.83-3.54-1-2.44,5.69-2.81,7.92-.67,3.88-1.91,7.64-2.94,11.44C519.72,394.54,518.73,399,519.13,403.4Z" transform="translate(-21.85 -59.56)"/><path class="cls-12" d="M98.62,547c4.48,4.44,10.59,6.73,16.39,9.21a184.56,184.56,0,0,1,48.18,30.12,37.11,37.11,0,0,0,6.37,4.81,38.09,38.09,0,0,0,6.43,2.46,133.93,133.93,0,0,1,26.2,11.77c3.26-5.53-.36-12.44-4-17.76s-7.46-10.83-12.39-15.13c-4.25-3.71-9.22-6.48-14.15-9.22L146.29,549.1c-6.65-3.69-13.34-7.4-20.56-9.77a89.11,89.11,0,0,0-23-3.81q-2.94-.15-5.9-.23c-1.33,0-3.24-.46-4.49.15-1.84.9-1.53,3.51-.73,5,.7,1.32,1.79,1.83,2.95,2.66A35,35,0,0,1,98.62,547Z" transform="translate(-21.85 -59.56)"/><path class="cls-13" d="M256.52,594.55c2-.42,4-1,5.94-.58a12.91,12.91,0,0,1,5.33,3c6.33,5,12.89,11.07,14,19.09a34.08,34.08,0,0,1-.44,9.5l-8.22,57.89c-.57,4.06-1.18,8.21-3.12,11.83C266,702.86,257.1,706.33,249,709.2a53.43,53.43,0,0,0-6.05-31.47,152.19,152.19,0,0,0-8.53-13,183.75,183.75,0,0,1-10.69-17.63c-4.58-8.64-8.53-17.86-9.33-27.61-.69-8.32,1.19-16.88,6.16-23.68,1.77-2.42,3.53-4,6.68-3.34,4.51,1,8.69,2.54,13.34,3A52.26,52.26,0,0,0,256.52,594.55Z" transform="translate(-21.85 -59.56)"/><path class="cls-13" d="M298.87,581.69l31.57-16.24c29.26-15,60.65-32.31,73.69-62.51,6.93-16.08,7.75-34,8.46-51.52.83-20.09,1.65-40.17,1.71-60.27.18-52.89-4.9-105.81-2-158.62.2-3.68,1.81-8.59,5.47-8.12,1.75.22,3,1.74,3.95,3.24,4.65,7.51,5,16.9,8.41,25,1.37,3.22,3.22,6.22,4.76,9.37,6.67,13.54,7.47,29.12,8.15,44.19l5.34,119c.42,9.41.83,19-1.44,28.13-1.81,7.27-5.26,14.05-7,21.33-2.69,11.28-1.15,23.07-1.52,34.66-.49,15.93-4.6,31.5-8.67,46.9l-13,49.1c-1.19,4.49-3.34,9.85-8,10.34-4.81.5-8.23-5.22-7.69-10s3.52-8.91,5.6-13.27a37.93,37.93,0,0,0-2.79-36.95c-12.36,7.91-18.46,23.36-31.11,30.79-7.81,4.59-17.16,5.53-25.87,8-19.88,5.71-36.25,19.5-54.27,29.64-4.61,2.58-10,5-15,3.35-4-1.31-6.5-4.83-8.09-8.53-1.3-3-3.62-7.82-2.47-11.08,2.86-8,11.71-14.32,18.57-18.63C289.91,586.35,294.38,584,298.87,581.69Z" transform="translate(-21.85 -59.56)"/><path class="cls-14" d="M228,463.86c-3.13,8.62-6.31,17.82-4.33,26.78.72,3.3,2.14,6.46,2.39,9.83.66,8.64-6.4,16.76-4.79,25.27s11.08,13.59,13,22c.89,3.91,0,8-.09,12a28.93,28.93,0,0,0,10.32,22.48,49.93,49.93,0,0,1,23.78.05c6.39-9.57,2.07-22.24-.52-33.46a99.24,99.24,0,0,1-1.9-33.53c.7-6.15,2-12.25,2.09-18.44.11-6.82-1.2-13.56-2.05-20.33-2.76-22-.65-44.93-8.29-65.73-1.81-4.93-4.74-10.18-9.82-11.52-1.62,9.19-1.3,19.4-4.54,28.2-2.44,6.61-6.5,12.48-8.93,19.16Q231.14,455.23,228,463.86Z" transform="translate(-21.85 -59.56)"/><path class="cls-15" d="M435.85,616.81c.1,8.56,2,18.71,9.78,22.17,2.45,1.09,5.19,1.33,7.7,2.25a28.9,28.9,0,0,1,8.32,5.38,310.68,310.68,0,0,1,43.94,44.8c2.55,3.17,5.07,6.45,8.36,8.85,2.15,1.58,4.58,2.75,6.67,4.4,3.71,2.94,6.1,7.19,8.39,11.32l20,36a7,7,0,0,0,2.81,3.23,5.9,5.9,0,0,0,4.08,0A20.11,20.11,0,0,0,570.14,737c.49-17.69-21.34-27.93-26.2-45-1.2-4.19-1.42-8.93-4.26-12.24-2.51-2.93-6.49-4-9.83-6-16.75-9.78-13-36.42-26.26-50.59-2.57-2.74-5.71-4.92-8-7.87-8-10.15-3.64-24.7-3.17-37.6.92-24.82-13.79-47.19-27.9-67.63,0,0-5.39,8.34-5.81,9.23a44.71,44.71,0,0,0-3.38,10.6c-1.09,5.85-1.41,11.52-3.89,17-6.09,13.49-10.87,27-13.34,41.69A158.38,158.38,0,0,0,435.85,616.81Z" transform="translate(-21.85 -59.56)"/><path class="cls-16" d="M275.29,632.42a153.88,153.88,0,0,0-8-27.81c-1.07-2.73-2.81-5.85-5.73-6-2.69-.15-4.69,2.27-7,3.69-.66.39-1.56.68-2.15.2s-.44-1.36-.49-2.09c-.17-2.58-3.08-4.28-5.67-4.09-3,.25-5.38,2.25-7.65,4.08a24.08,24.08,0,0,1-5.35,3.18,19.31,19.31,0,0,0-5.49,4c-3.87,3.81-6.6,8.65-9,13.48a9.53,9.53,0,0,0-1.08,3.24,9.14,9.14,0,0,0,.9,3.94c2.76,7.16,5.55,14.33,8.3,21.5,1.18,3,2.37,6.12,4.53,8.54,3.76,4.26,9.94,6,13.23,10.58.82,1.15,1.59,2.56,3,2.76a4.2,4.2,0,0,0,2.41-.59A69.11,69.11,0,0,0,261,664.39c3.85-2.82,7.5-6.16,9.54-10.47,2.9-6.14,2.19-13.31,1.4-20.07A5,5,0,0,0,275.29,632.42Zm-49.26-13a34.21,34.21,0,0,1,8-6.8,7,7,0,0,0,2.3-2.61,23.18,23.18,0,0,1,3.15-3.94,22,22,0,0,1,4.52-3.5c.71-.42,1.64-.79,2.31-.3a2.52,2.52,0,0,1,.61.88c.61,1.19,1.19,2.4,1.8,3.62a2.29,2.29,0,0,1,.32,1.68,2.58,2.58,0,0,1-.63.78c-5.28,4.85-10.55,9.73-15.85,14.57-1.22,1.13-2.56,2.3-4.21,2.49a16.17,16.17,0,0,1-2.72-4.93,2,2,0,0,1-.15-1.1A2.63,2.63,0,0,1,226,619.45Zm9.64,39.22a18.39,18.39,0,0,1-1.46-2.6c-.51-.89-1-1.79-1.46-2.7-1-1.79-1.89-3.6-2.76-5.43-1.8-3.67-3.44-7.4-5-11.2-.32-.83-.76-1.59-.18-2.38a5.53,5.53,0,0,1,2.31-1.8.67.67,0,0,1,.63,0c.18.09.24.31.3.49a91.19,91.19,0,0,0,9.77,22.08,2.72,2.72,0,0,1,.59,1.7C238.32,658,236.86,658.48,235.67,658.67Zm7.7-9.8c-2.4.83-4.73-1.37-6.1-3.5a35.67,35.67,0,0,1-3.64-7.54c-.38-1.17-.73-2.37-1-3.56a5.22,5.22,0,0,1-.22-2.92c.38-.88,1.5-1.55,2.19-2.17l3.19-2.75q6.42-5.55,12.89-11.1a1.23,1.23,0,0,1,.7-.37,1.07,1.07,0,0,1,.69.44,34.49,34.49,0,0,1,9.43,19.35A46.77,46.77,0,0,0,246,646.62,6.73,6.73,0,0,1,243.37,648.87Zm5.71,13.8c-.9-2.12-1.89-4.19-2.9-6.27-.34-.65-1.05-1.56-.66-2.33a10.34,10.34,0,0,1,2.25-2.28c3.24-3,6.58-6,10.06-8.77,1-.78,1.93-1.57,2.92-2.32a35.3,35.3,0,0,0,3-2.22c1.13,2.6,2.29,5.18,3.42,7.76A76.16,76.16,0,0,1,249.08,662.67Zm20.61-33.79a1.57,1.57,0,0,1-.75.64q-1.38.76-2.76,1.56a2.13,2.13,0,0,1-1.12.39,2,2,0,0,1-1.19-.77c-3-3.31-3.74-8-5-12.32a48.58,48.58,0,0,0-2.73-7.21c-.51-1.13-1.08-2.5-.39-3.51a3.32,3.32,0,0,1,1.3-1c1.54-.85,3.08-1.67,4.63-2.51.72,1.4,1.39,2.93,2.22,4.29.51.8,1.19,1.44,1.67,2.29a21.9,21.9,0,0,1,1.49,3.4,48.86,48.86,0,0,1,1.59,7.39c.34,2.11.7,4.24,1,6.36A1.75,1.75,0,0,1,269.69,628.88Z" transform="translate(-21.85 -59.56)"/><path class="cls-16" d="M429.94,522.45c-1.13-5.72-4.49-11.37-9.65-14.33-1.94-1.11-4.68-2.9-7.05-2.58-2.78.39-5.55,2.8-7.54,4.68a25,25,0,0,0-5.92,8.61c-3.72,9.12-1.77,19.47.86,29,.68,2.39,1.46,4.84,3.17,6.63a10.43,10.43,0,0,0,8.42,2.63,28.6,28.6,0,0,0,8.62-2.73c2-.89,4-1.87,5.31-3.62a13.18,13.18,0,0,0,1.81-4.85C429.72,538.14,431.46,530.2,429.94,522.45Zm-12.32,22.93c-1.87,2.87-5.08,5.49-8.42,4.69s-5-4.79-5.53-8.31a33,33,0,0,1,.22-10.49,34.35,34.35,0,0,1,7.91-16.57,6.47,6.47,0,0,1,2.5-2.15,6.08,6.08,0,0,1,3.72.23A8.39,8.39,0,0,1,423,519a20.72,20.72,0,0,1,.14,5.1C422.61,531.53,421.72,539.23,417.62,545.38Z" transform="translate(-21.85 -59.56)"/><path class="cls-16" d="M423.52,552.94l-12.34,4.32c-.59,4.06-1.18,8.32.22,12.19a22.34,22.34,0,0,0,1.93,3.73c1.29,2.12,3.35,4.17,4.21,6.55a3.42,3.42,0,0,1,.09,2.21,17.74,17.74,0,0,1-3.36,5.95c-1.74,2.13-3.89,3.84-5.71,5.91a23.43,23.43,0,0,0-4.81,21.47c5.61-1.75,12-4.67,14.31-10.06,1.73-4.05,2.1-8.51,2.45-12.9a149,149,0,0,0,.67-21C420.77,565,419.76,558,423.52,552.94ZM416,599.39a12.92,12.92,0,0,1-1.63,3.49c-1.64,2.47-3.81,4.67-4.64,7.52-.66.75-2.05.28-2.48-.63a3.94,3.94,0,0,1,.17-2.95,15.53,15.53,0,0,1,1.82-3.44A41.07,41.07,0,0,1,412,600a17.68,17.68,0,0,0,2.23-3.05c.33-.6,1-2.4,1.83-1.22C416.69,596.54,416.2,598.5,416,599.39Zm2.64-25.11-1.93-.15a19.44,19.44,0,0,0-1.53-3.88,13.87,13.87,0,0,1-.79-5.74c.05-1-.14-3.93,1.08-4.36s1.64,2.82,1.84,3.61S419.09,574.31,418.59,574.28Z" transform="translate(-21.85 -59.56)"/><path class="cls-17" d="M415.22,336.52c-.06,12.21-.12,24.43.71,36.62.75,11.06,2.22,22.06,2.82,33.13,1.71,32-4,64-10.52,95.35-.37,1.79-.74,3.68-.14,5.4a9.5,9.5,0,0,0,3.62,4.14,67.1,67.1,0,0,0,20.8,10.43c.92.27,2,.49,2.76-.15a2.87,2.87,0,0,0,.72-1.53c6.55-27-2.63-56.1,4.62-82.93,1.57-5.79,3.9-11.47,4.13-17.47.26-6.65-2.08-13.11-3.09-19.69a103.2,103.2,0,0,1-.67-17.14q.81-57.93-4.14-115.75c-.62-7.21-1.33-14.51-3.76-21.32a44.18,44.18,0,0,0-5.59-10.7c-1.32-1.85-3.89-6.34-6.7-5.84-2.37.42-3.49,3.81-4.07,5.76-1.05,3.53-1,7.1-1.06,10.74l-.14,29.2-.14,29.05-.14,29.05Z" transform="translate(-21.85 -59.56)"/><path class="cls-17" d="M405.06,550.32a20.55,20.55,0,0,1-5.53,4.75l-37.48,25.16c-7.41,5-14.84,9.95-22.64,14.28-21.14,11.72-45,18.63-64.46,33-2.05,1.51-4.7,3.17-7,2a6.5,6.5,0,0,1-2.52-3.32,92.29,92.29,0,0,1-6.3-19.72c30.12-7.37,52.74-31.91,80.49-45.76,5.72-2.86,11.65-5.25,17.44-7.95a184.51,184.51,0,0,0,26.39-15.06c4.81-3.3,10.24-7.08,16.27-7.45,2.23-.13,4.82-.1,5.53,2.34a46.65,46.65,0,0,1,1.82,8.34A13.7,13.7,0,0,1,405.06,550.32Z" transform="translate(-21.85 -59.56)"/><path class="cls-17" d="M270.43,660l3.48,29.79c.77,6.55,1.54,13.14,3.38,19.48,1.72,6,4.39,11.67,5.23,17.81,1,7-1,14.95-6.71,19.17s-15.41,2.78-18.1-3.8a20.18,20.18,0,0,1-1.07-6.7,336.58,336.58,0,0,0-9-63.09c-.88-3.64-1.88-7.6-.69-11.29,1.09-3.39,3.91-5.29,6.39-7.61,1.76-1.64,3.53-3.75,5.86-4.62s5.57,0,7.58,1.56C269.53,652.86,270.05,656.76,270.43,660Z" transform="translate(-21.85 -59.56)"/><path class="cls-16" d="M447.78,449.87q-.15-20.3-.27-40.58a33.81,33.81,0,0,0-1-9.73c-1-3.14-3.05-6.15-6.2-7.4a21.21,21.21,0,0,0-6.18-1c-1.42-.08-2.87-.19-4.3-.14a7,7,0,0,0-5.45,2.37c-2.22,2.56-3.54,6-4.53,9.19a60.28,60.28,0,0,0-2.36,13c-.61,6.39-.83,12.89.56,19.17s4.53,12.31,9.61,16.2,12.33,5.29,18.14,2.56a3.65,3.65,0,0,0,1.4-1A4.22,4.22,0,0,0,447.78,449.87Zm-13.26-3.54a11.34,11.34,0,0,1-4.27-3,28.44,28.44,0,0,1-4.89-5.69c-3.68-6.09-2.84-13.77-1.87-20.81.58-4.21,1.16-8.45,1.73-12.67.36-2.65,1-5.66,3.37-6.83a4.56,4.56,0,0,1,4.83.75c1.22,1,1.12,3.3,1.35,4.75a6.47,6.47,0,0,0,2.77-.16,9.85,9.85,0,0,0,0-3.71c4.54,1.8,5.82,7.53,6.28,12.39a174.68,174.68,0,0,1-.08,32.58C440.93,445.62,437.64,447.34,434.52,446.33Z" transform="translate(-21.85 -59.56)"/><path class="cls-17" d="M114.3,504.67c5.83,1.45,11,4.75,15.92,8.18,33.33,23.26,60.31,54.95,94.74,76.54a91.25,91.25,0,0,1,8.23,5.49c2.83,2.22,5.32,4.84,8.09,7.15a6.33,6.33,0,0,1,2.34,2.83,5.55,5.55,0,0,1-.67,3.75,37.36,37.36,0,0,1-10.58,13.46,9.72,9.72,0,0,1-4.64,2.34c-2.85.35-5.46-1.5-7.72-3.26-30.73-23.91-60.21-49.94-94.57-68.25-5.51-2.93-11.23-5.69-17.39-6.67s-12.9.06-17.71,4c-.31.26-2.87-5-3-5.48a20.7,20.7,0,0,1-1.1-6.52c0-4.12,1.33-8.19,2.39-12.12,2-7.32,4.22-16.48,11.48-20.22A20.61,20.61,0,0,1,114.3,504.67Z" transform="translate(-21.85 -59.56)"/><path class="cls-18" d="M116.39,510.52c8.36,1.65,14.54,8.47,20.4,14.67a283.51,283.51,0,0,0,69.89,53.93c2.58,1.41,5.33,2.92,6.73,5.5s.64,6.55-2.18,7.38c-1.78.53-3.66-.34-5.32-1.18-13.28-6.75-26.76-13.64-37.5-24-5.54-5.32-10.39-11.57-17.08-15.35-3.79-2.14-8-3.38-12-5.07-7.73-3.26-14.7-8.19-22.58-11.07a30.24,30.24,0,0,0-16.35-1.63,20.22,20.22,0,0,0-7.44,3.32c-.75.51-2,1.71-2.9.85-1.65-1.6,1.41-7.86,2-9.41,1.78-4.41,3.83-9,7.27-12.38C103.78,511.8,110.21,509.3,116.39,510.52Z" transform="translate(-21.85 -59.56)"/><path class="cls-18" d="M264.33,658.36a5.32,5.32,0,0,1,.45,2.66c0,13.92,4.87,27.65,3.63,41.51-.08.81-.38,1.84-1.19,1.88s-1.13-.66-1.44-1.26a46.81,46.81,0,0,1-4.37-11c-.47-2.21-.62-4.49-1.12-6.7a43.16,43.16,0,0,0-3.37-8.81c-1.76-3.76-6.07-9.55-3.56-13.78C255.23,659.74,261,654.52,264.33,658.36Z" transform="translate(-21.85 -59.56)"/><path class="cls-18" d="M274.38,619.05a9.7,9.7,0,0,0,4.42-2c8.87-6,17.63-12.65,28-15.41,2.92-.78,6-1.24,8.75-2.41a37.05,37.05,0,0,0,7-4.23l29.26-20.79c2.79-2,5.7-4.11,7.05-7.25s.36-7.54-2.87-8.66c-.5-.18-4.09,3.2-4.64,3.63q-2.34,1.8-4.72,3.55-4.74,3.51-9.6,6.85-9.84,6.75-20.15,12.79a333.42,333.42,0,0,1-42.75,21.13c-2.06.85-4.21,1.56-6.24,2.48s-1.27,2.19-.56,4C268.48,615.75,270.69,619.35,274.38,619.05Z" transform="translate(-21.85 -59.56)"/><path class="cls-18" d="M416.27,496.07a14.65,14.65,0,0,0,0,5.56,9.77,9.77,0,0,0,5.75,6.12,28.89,28.89,0,0,0,8.46,1.84c.34-4,.5-8.53-2.24-11.46a12.21,12.21,0,0,1-2-2.2,6.62,6.62,0,0,1-.59-2.79l-2-30.72c-.12-1.93-.37-4.12-1.92-5.29-.13-.09-1.69,6.27-1.89,6.85a19.27,19.27,0,0,0-1.16,5.5q-.44,8.52-1.29,17Q416.89,491.28,416.27,496.07Z" transform="translate(-21.85 -59.56)"/><path class="cls-18" d="M433.26,436.26a2.91,2.91,0,0,0,3.84-.32,7.17,7.17,0,0,0,1.77-3.8,32.18,32.18,0,0,0-3.42-22.46c-.39-.68-1-2.35-1.93-1.83-.67.36-.64,2.43-.66,3-.16,3.56.87,7.11,1,10.68A112.89,112.89,0,0,1,433.26,436.26Z" transform="translate(-21.85 -59.56)"/><path class="cls-18" d="M421.2,369.7c-.48,3.48-1,7.16.37,10.4s5.38,5.65,8.48,4c2.58-1.38,3.31-4.83,2.83-7.72s-1.85-5.58-2.36-8.47a30.76,30.76,0,0,1,0-7.73,256.19,256.19,0,0,0,.22-36.65,259.22,259.22,0,0,0-5-36.59q-1.06-5-2.33-10c-.74-2.89-1.24-6.28-2.51-9-.42,1.76.31,4.25.54,6q.71,5.18,1.24,10.37,1.06,10.25,1.54,20.53a356.25,356.25,0,0,1-.53,41.59Q422.8,358.11,421.2,369.7Z" transform="translate(-21.85 -59.56)"/><path class="cls-19" d="M841.62,680.45c-2.07.6-4.18-.7-6-1.93q-7.49-5.14-15-10.29a339.31,339.31,0,0,1,11.11,86.08l-17.4-16.26c-1.91-1.81-4.59-3.75-7-2.55-1.43.72-2.12,2.36-2.63,3.88-9.28,28.46,8.05,59.41,3.39,89L787.46,810c-2.63-2.33-5.61-4.79-9.12-4.69-6.38.2-9.1,8.07-10,14.39-.11.8-.23,1.62-.31,2.42v0s0,0,0,0q.65,40.17,3.66,80.22c-4.7-4.84-6-11.93-8.37-18.26s-6.94-12.93-13.67-13.28c-5.79-.33-10.61,4.06-15.77,6.73-15.19,7.92-33.69.93-48.79-7.19-2-1.06-4.15-2.21-6.43-2.25-5.93-.14-9.45,6.58-10.64,12.41s-2,12.61-6.93,15.84A32.68,32.68,0,0,0,650,876.05c-4.73,7.4-9.47,14.84-14.21,22.24-3.77-3.32-4.34-8.84-5.93-13.61s-5.86-9.76-10.69-8.38c-7.46,2.11-4.68,14.89-11,19.45a300.87,300.87,0,0,1,2-58.4c-1,3.3-2.06,6.63-3.06,9.93a585.34,585.34,0,0,0,12-110.1q-5.56,14.49-11.11,29c-1.67-22.43,2-44.87,5.69-67.05q6.18-37.23,12.34-74.47a62.5,62.5,0,0,0-23.44,21.76c-4.44-7.29-3-16.58-1.4-25q8.72-45.88,17.39-91.75a23.76,23.76,0,0,0-20.3,8.21c-1.31,1.57-2.65,3.47-4.67,3.78-4.42.68-5.75-5.8-5.1-10.22q5.13-36.69,13.67-72.79a63.87,63.87,0,0,0-14.8,14.91c.87-1.26.58-5.65.77-7.21.26-2.43.55-4.82.83-7.21q.92-7.53,2-15c.9-6.4,1.88-12.82,2.93-19.2a211.39,211.39,0,0,1-10.15-37.66,44.8,44.8,0,0,1-7.2,24.26,159.37,159.37,0,0,1-16.6-67,79.35,79.35,0,0,0-12.84,31,188.57,188.57,0,0,0-29.56-81.83,24.49,24.49,0,0,1-8,12.69q-7-13.18-14-26.36c-1.55-2.9-4.09-6.31-7.29-5.54-2.62.61-3.75,3.59-4.44,6.19A214.32,214.32,0,0,0,477.87,313q-5.21-24-10.45-48.1.25,34.8.48,69.6a320.75,320.75,0,0,1-32.08-84.77q-.92,13.68-1.85,27.3-3.08-16.08-6.1-32.13c-.33-1.79-.81-3.77-2.31-4.79s-4.24,0-3.9,1.78q-3-6.57-6-13.15-1,11.85-2,23.72-2.82-11.62-5.6-23.19-2.1,19.16-4.21,38.37a24.43,24.43,0,0,1-4.5-10.88,74.52,74.52,0,0,1-2.24,26.34,47.13,47.13,0,0,1-5.8-20.25,295.66,295.66,0,0,0,3.49,53.67q-4.65-9.1-9.33-18.23a171.06,171.06,0,0,1-.26,40.2q-3.54-16.67-7.08-33.3-1,39.78-1.92,79.49c-15.57-27.86-17.86-60.93-19.8-92.78-14,21.93,10,53.83-3.83,75.82-5.63-3.13-7.24-10.36-8.14-16.76q-4.62-32.3-6-64.93l-16.2,75.59c-11-32.79,5.62-68.51,2.52-103L314.26,280.7c-1.29-7.62-2.56-15.25-3.86-22.9a365.37,365.37,0,0,0-14.22,69q-4.46-28.26-8.91-56.57A982.57,982.57,0,0,1,271,388.32q1.19-60.39-1.06-120.76a232.34,232.34,0,0,0-39.2,72.24c-.42-20,5.18-39.59,10.72-58.8a188.8,188.8,0,0,0-40.8,78.64A283.3,283.3,0,0,1,210,306.18a215.84,215.84,0,0,0-28.4,50,93.63,93.63,0,0,1,13.29-63.26q-23.7,25.76-47.36,51.54c.77-17.86,11.29-33.76,22.9-47.35s24.89-26.12,33.05-42q-19.49,19.29-39,38.61a68.13,68.13,0,0,1,20.76-32.4,175.6,175.6,0,0,0-40.45,28.32q12.35-17.53,26.08-34a527.29,527.29,0,0,1,50.62-53,58.62,58.62,0,0,1,17.28-11c5.12-2.13,10.27-4.34,15.73-5.41a45.3,45.3,0,0,1,9.38-.86c1,0,8.79.17,9,1.09a53.28,53.28,0,0,0-6.63-16.8q6.38,6.9,12.7,13.81a257.85,257.85,0,0,1-4.18-35.24A35.41,35.41,0,0,1,301,159.67q-2.69-14.05-5.36-28.15A210.39,210.39,0,0,0,318.53,161c1.78,1.93,4.4,4,6.73,2.77,1.62-.84,2.16-2.85,2.53-4.64q3-14.81,6.06-29.59a32.43,32.43,0,0,1,10.36,17c2.59-3,5.15-6.08,7.75-9.13a36,36,0,0,1,6.61,21.22c2.75-3.15,5.48-6.29,8.23-9.43-3.88,4.67-1.56,12.24,3.19,16s11.07,4.75,17.08,5.59L402.54,173c-.29-2.75-.58-5.53.37-8.05,2.24,4,9.18,1.55,9-3.22,1,4.18,6.93,4.24,9.54.93s2.84-8.07,2.93-12.45c2.44,3.89,7.8-.17,10.31-4.13s7.75-8.15,10.29-4.32a5.81,5.81,0,0,1,4.65-4.43c0,3.54.15,7.23,1.58,10.4s4.62,5.57,7.7,4.66c1.72-.52,3.29-2,5.07-1.91,4.44.36,3.8,8.83,7.65,11.28,4.43,2.8,10.4-4.8,14.72-1.78,2.22,1.57,2.39,4.8,2.43,8.08,2.79.93,6.37,2.29,8.41,2.86.35,3.3-1.47,5.37-4.15,6.85,1.29.13,2.63-.08,3.86.4,2.8,1.12,3.42,5.29,2.78,8.57s-2.12,6.46-1.8,9.78c.27,2.75,1.72,5.12,2.78,7.61.22.51.42,1,.59,1.52a8.35,8.35,0,0,1,.8-.25c6.62-1.71,10.72,6.94,12,13.65,2.92-5.28,10.33-11,13.72-6a8.65,8.65,0,0,1,1.13,4.23c.52,5.52,1,11.07,1.56,16.61l19.9-14.29q-4.45,7.92-9,15.89l15,8.92c-.42-2.81-.85-5.62-1.27-8.43a77,77,0,0,1,20,43.27Q579.61,267,584,254.76c2.07,10.88-.53,22.34,2.41,33s16,20,24.78,13.28c-5,5.42-10.12,11.32-11.08,18.59a14.58,14.58,0,0,0,5.74,13.44c.84.19,1.58.35,2.19.53q13.44,3.54,26.94,7.11c4.38,1.16,9.27,2.7,11.33,6.75-3.6,1-7.18,1.9-10.75,2.82a62.8,62.8,0,0,1,15.26,14.86c2.38,3.27,4.52,7.32,3.37,11.18a6,6,0,0,1-3.3,3.52,34,34,0,0,1,19.52,16.32,10.56,10.56,0,0,1,8-1.45q2.43,15.29,4.84,30.58c.34,2.08.74,4.32,2.26,5.78,2.81,2.7,7.49,1.24,11.19,2.48a9.4,9.4,0,0,1,4.82,3.89v0c2.81.91,5.6,1.87,8.38,2.86,2.15.76,14.89,7.11,16.28,6.21-4.91,3.16-9.8,6.35-14.71,9.51,9.62,12.25,24.88,21,29.39,36a12.35,12.35,0,0,1-3.88-.61A63.26,63.26,0,0,1,764,523.9l-5.74-5.81Q776,547.4,793.83,576.67c-5.25-3.49-10.52-6.95-15.76-10.43A65.3,65.3,0,0,1,797,586v0q14.46,14.94,28.52,30.31l-12.08,4.55a189.78,189.78,0,0,1,30,49.06C844.91,673.64,845.49,679.32,841.62,680.45Z" transform="translate(-21.85 -59.56)"/><path class="cls-19" d="M497.23,170.89a8.69,8.69,0,0,0-.28-1.53C499.72,171.23,499.16,171.43,497.23,170.89Z" transform="translate(-21.85 -59.56)"/><path class="cls-20" d="M291.23,164.93a62.74,62.74,0,0,1,12,33.63A64.93,64.93,0,0,0,285.81,189l5.76,13.62c.68,1.62,1.38,3.36,1.06,5.09-.44,2.37-2.65,4-4.8,5.05-11.76,5.85-25.77,3.18-38.6.38l13.14,16.59a359.12,359.12,0,0,1-48.82,7.5,68.76,68.76,0,0,0,16.75,13.73,69.43,69.43,0,0,0-28.51,1.51l23.68,16.89c-15.28,2.71-24.3,18.21-31.23,32.1l8.65-15.31c1.75,3.5.54,7.65.12,11.54s.71,8.77,4.5,9.75,7.17-2.76,9.39-6.09l15.27-22.87c2.24-3.36,5.77-7.17,9.55-5.77L244.11,295a57.52,57.52,0,0,0,13.41-19.36c1.51-3.57,2.69-7.37,5.08-10.43s6.43-5.24,10.14-4.11,5.68,6.63,2.72,9.14l9.72-11q-7,36-11.31,72.51c11.67-26.72,6.83-60.89,26.74-82.19a112.84,112.84,0,0,1-.8,35l12.75-34.37c.78-2.1,1.78-4.43,3.88-5.21,3.75-1.39,6.94,3.19,7.71,7.11s1.26,8.7,4.88,10.4A97.82,97.82,0,0,1,340.7,227c5.64,12.26,6.23,26.14,6.74,39.63a57.92,57.92,0,0,1,9.21-19l-5.39,56.7c11-8,9.24-27,20.65-34.48a63.06,63.06,0,0,1,.58,16.69,191.21,191.21,0,0,0,2-65.29l-15.64,13.56c-6-16.5,5.43-34.89,1.77-52.05l-13.31,10.9a65.25,65.25,0,0,1-2.85-18.14c0,.09-4.43,2-4.87,2.25a28.65,28.65,0,0,0-4.48,3.26c-2.77,2.46-3.9,4.25-7.55,2.25-7.6-4.19-15.05-8.54-22.89-12.29Q298,167.77,291.23,164.93Z" transform="translate(-21.85 -59.56)"/><path class="cls-20" d="M408.91,224.07c4.6-5.29,4.26-16.42,11.27-16.25,3.44.08,5.77,3.4,7.53,6.36q8.1,13.66,16.21,27.34l5.34-10.92a169.72,169.72,0,0,0,13.23,49.6,188.16,188.16,0,0,1,6.42-24.61c.86-2.55,2-5.35,4.47-6.43,4.09-1.79,8.32,2.38,10.21,6.43s3.46,9,7.63,10.55l7.47-18.36q8.12,12.42,17.35,24.07l6.61-8.83a138.44,138.44,0,0,1,18.63,33.47A7.19,7.19,0,0,1,546,290a348.45,348.45,0,0,0,12.77,60.56,113.85,113.85,0,0,0,3.27-63l-1,9.31q-5.55-16.35-12.35-32.24c-1-2.26-2.19-4.74-4.51-5.55-2.15-.75-4.49.22-6.76.23-5.6,0-9.43-5.34-12.94-9.7s-9.56-8.48-14.26-5.44a259.17,259.17,0,0,0-44-46.18c-3.06-2.5-6.54-5.06-10.49-5s-7.85,4.4-6,7.9l-23.1-11.7-2.56,9.13c.43-1.54-11.73-7.64-13.25-8.25-4.51-1.78-10.35-2.65-14.83-.25-7.93,4.24-.39,14.54,3.25,19A70.56,70.56,0,0,1,408.91,224.07Z" transform="translate(-21.85 -59.56)"/><path class="cls-20" d="M608.9,505.63c.06,1.95.2,4.05,1.41,5.58,2.85,3.6,8.7,1.28,12.09-1.82s7.28-7.08,11.74-6q-3.82,40-10.66,79.66c5.93-.53,8.52-7.53,10.55-13.13s7.26-12,12.68-9.47q-7.85,57-13.43,114.31c-.66,6.78-.5,15.16,5.48,18.42l17-40.14c-2,54.17-6.69,108.2-11.4,162.19l13-29.17a691.82,691.82,0,0,0,.34,77.95l19.54-52.5c2.1-5.66,7.56-12.58,12.61-9.26,1.8,1.19,2.64,3.36,3.37,5.39l10.44,29,6.57-17.48c.76-2,1.81-4.32,3.9-4.86,2.64-.67,4.93,1.86,6.32,4.2,7.83,13.18,9.86,29.46,19.21,41.61,1.06,1.37,2.37,2.77,4.09,2.94,3.57.36,5.21-4.28,5.56-7.85a381.57,381.57,0,0,0-.49-79.74,62.73,62.73,0,0,1,28.69,5,336.87,336.87,0,0,0-8.59-53.84,15.33,15.33,0,0,1,12.63.9,107.88,107.88,0,0,0-53.92-37.18c-2.33-.71-4.83-1.43-6.37-3.31-2.86-3.52-.8-8.71,1.33-12.71L737.23,647c2.06-3.86,4.16-8.41,2.42-12.42-4.27-9.88-22.19-1.57-29-9.86-5-6.06.31-14.94,5.48-20.85L731.62,586c2.13-2.43,4.41-5.41,3.68-8.56-.46-2-2.06-3.53-3.61-4.89-12.36-10.8-26.6-19.19-40.75-27.52,5.78.71,11.19-4.66,11.56-10.47s-3.48-11.34-8.57-14.16c-7.79-4.31-18.35-3.42-24.51-9.85C666,507,664.81,502,663.7,497.24l-11-47.57c-7-2.1-7.38,15.9-14.13,13.24a6.41,6.41,0,0,1-2.8-2.84c-15.39-24.88-12.61-59.25-32.49-80.71a15.61,15.61,0,0,1-10.06,6.9A66.11,66.11,0,0,1,584.38,362a177.79,177.79,0,0,1,16.53,68.53c.38,10.26.8,20.16,5.36,29.54,1.46,3,2.91,5.81,3.16,9.18.41,5.37-.42,10.92-.57,16.3Q608.57,495.61,608.9,505.63Z" transform="translate(-21.85 -59.56)"/><path class="cls-21" d="M317.19,387.77c1.32-3.16,2-6.69,4.09-9.37,2.77-3.5,7.63-4.82,12.08-4.44s8.65,2.21,12.74,4l21.71,9.55a5,5,0,0,1,2.08,1.38c.88,1.18.54,2.85.16,4.28l-5.75,21.66c-.75,2.82-1.55,5.74-3.37,8a19.28,19.28,0,0,1-6,4.52c-9.69,5.35-21.09,9.12-31.77,6.23-4.89-1.32-9.34-4-14.21-5.32s-10.73-1.13-14.23,2.53c1-1,1.54-3.34,2.13-4.61l2.18-4.72,4.4-9.54,4.36-9.44c1.12-2.43,2-5.75,4.09-7.53A18.53,18.53,0,0,0,317.19,387.77Z" transform="translate(-21.85 -59.56)"/><path class="cls-22" d="M339.52,386.21c5.05.5,8.53,5.9,13.57,6.54,1.93.25,4.07-.19,5.68.88s2.06,3.45,2.1,5.49a37,37,0,0,1-2.8,14.69c-1.53,3.66-3.78,7.21-7.21,9.21s-7.5,2.21-11.43,2.38a62,62,0,0,1-11.07-.21c-6.86-.94-13.49-4.11-20.37-3.43,5.43-5.25,6.94-13.07,10-19.7a76,76,0,0,1,3.75-7.7,27.86,27.86,0,0,1,2.15-3c.54-.68,1.1-1.34,1.66-2,.86-1,1.13-.78,2.37-.78C331.91,388.59,335.46,385.81,339.52,386.21Z" transform="translate(-21.85 -59.56)"/><path class="cls-23" d="M319.25,400.62c-1.79,4.25-3.08,8.85-2.51,13.42s3.34,9.08,7.66,10.66c2.73,1,5.73.77,8.62.52l11.29-1c2.54-.22,5.18-.47,7.32-1.83,3.91-2.48,4.89-7.75,4.75-12.37-.25-8.11-3.23-16.68-10-21.17a11.7,11.7,0,0,0-4.57-1.93,17.42,17.42,0,0,0-5.14.2l-6.05.83a14.71,14.71,0,0,0-5,1.15c-2,1.05-2.41,3.56-3.4,5.38A66,66,0,0,0,319.25,400.62Z" transform="translate(-21.85 -59.56)"/><path class="cls-24" d="M346.67,399.87a28.31,28.31,0,0,0-2.16-5.34c-.42-.86-1-1.84-2-1.86a2,2,0,0,0-1.5.86,4,4,0,0,0-.4,4.31c.58,1.1,1.66,1.89,2.2,3,.68,1.43.32,3.85,1.9,4.74s2.22-1.52,2.29-2.54A10,10,0,0,0,346.67,399.87Z" transform="translate(-21.85 -59.56)"/><path class="cls-25" d="M325.4,411.62a12.13,12.13,0,0,0-1.42,5,1.25,1.25,0,0,0,.11.72.86.86,0,0,0,1.25.08,2,2,0,0,0,.56-1.26,7.26,7.26,0,0,0-.54-4.09l.36,1.23" transform="translate(-21.85 -59.56)"/></svg>