<svg id="Lager_1" data-name="Lager 1" xmlns="http://www.w3.org/2000/svg" viewBox="0 0 443.2 180.87"><defs><style>.cls-1{fill:#0087a2;}</style></defs><path class="cls-1" d="M-6.27,316.67c-3.18-7.28.7-15.71,6.58-20.38,6.9-5.48,16.26-6.72,24.74-7.62,15.29-1.61,32.36-2.23,46.16,5.66C84.73,302.06,91,317.09,90.93,332.2,90.83,348.75,83,363.87,73,376.66a182.71,182.71,0,0,1-16.78,18.61c-5.69,5.51-12.21,10.49-19.53,13.64-6.93,3-15.06,4.15-21.77,0-6.38-4-9.16-11.22-9.59-18.47-.88-14.48,5.43-29.36,13.24-41.24A93.26,93.26,0,0,1,50.4,319.4a78.11,78.11,0,0,1,41.43-10.51A67.78,67.78,0,0,1,130,323c21.28,16.21,34.94,44.85,27.53,71.51-3.51,12.63-14.52,26.21-28.46,27.39-17.25,1.46-22.16-18.32-22.53-31.78-.8-29.93,16.58-59,41.69-74.7,27.45-17.17,62.84-17.41,92.36-5.57,14.72,5.9,28.18,14.82,38.57,26.87,9.7,11.26,17.18,25.51,17.95,40.58a46.87,46.87,0,0,1-3.55,20.46l1.87-.76c-12.37-8.15-17.69-23.51-16.91-37.84.9-16.64,10.2-31.67,20.85-43.93,21.54-24.79,49.94-44,80.39-56.07a217.88,217.88,0,0,1,25.88-8.46,209.65,209.65,0,0,1,27.85-5.6c1.08-.12,1.1-1.84,0-1.72a220.44,220.44,0,0,0-25,4,210.14,210.14,0,0,0-24.69,7.47,219.45,219.45,0,0,0-45.88,23.4A206.36,206.36,0,0,0,299,311.74c-11.21,12.52-21,27.57-22.87,44.63-1.76,16.11,4,33.74,18,42.85a1.3,1.3,0,0,0,1.87-.76c12.49-30.61-9.38-63.83-34.53-80.26-28.73-18.77-66.84-24.63-99.17-12.09C132.89,317.54,110,345,105.22,376.47a76.35,76.35,0,0,0,0,23.28c1.19,7.58,4,15.53,10.22,20.41,11.83,9.25,27.17,1.37,35.62-8.59,9.43-11.12,12.09-26.33,10.15-40.49s-8.46-27.36-17.68-38.11a75.17,75.17,0,0,0-35.65-23.46c-14.54-4.21-30.32-3.08-44.51,1.89-28.72,10.07-53,36.13-59.14,66.24-2.77,13.63-.4,32.08,15.77,35.7,7.4,1.66,15-.82,21.52-4.31,7.5-4,13.9-9.67,19.78-15.77,12.44-12.92,24.37-27.51,29.41-45.06,4.12-14.38,3-31.26-5.65-43.82-9.49-13.78-26-18.3-42-18.56a139.92,139.92,0,0,0-25.44,2c-8.14,1.36-16.7,4.12-22,10.86-4.16,5.29-6,12.36-3.07,18.66.37.79,1.51.1,1.17-.68Z" transform="translate(8.86 -243.4)"/></svg>