<svg id="Lager_1" data-name="Lager 1" xmlns="http://www.w3.org/2000/svg" viewBox="0 0 375 245.8"><defs><style>.cls-1{fill:#e9ffe6;}</style></defs><path class="cls-1" d="M375,207.2V425.26c-43-5.1-86.27,15.38-130,20-30.95,3.24-53-2.67-91.5-9.81-13.58-2.52-26.27-3.21-39.93-4.88-25.43-3.12-50,.38-75.26,5.34A147.26,147.26,0,0,1,0,438.68V214.77a138.24,138.24,0,0,0,39.11-4.53c1.64-.44,3.27-.9,4.89-1.4,17.21-5.28,33.13-5.72,51-7.84,44.07-5.23,85.06,22,129.38,19.57C257.79,218.74,285.68,206,319,203A162.3,162.3,0,0,1,375,207.2Z" transform="translate(0 -200.33)"/></svg>