<svg id="Lager_1" preserveAspectRatio="none" data-name="Lager 1" xmlns="http://www.w3.org/2000/svg" viewBox="0 0 375 385.6"><defs><style>.cls-1{fill:#ba985f;}</style></defs><path class="cls-1" d="M375,185.24V530.7a86.89,86.89,0,0,0-12,1.55c-25.94,5.27-47.25,16.61-73.51,18.63-39.6,3.06-64.46,5.4-92.92,5.55-58,.3-115.71-16.59-173.06-6.75C15.7,551,7.85,552.64,0,554.12V170.84c41.8-.39,83.8,16.64,126.2,20.76,33.34,3.24,57.1-2.67,98.59-9.81,14.63-2.52,28.3-3.21,43-4.88,27.39-3.12,53.89.38,81.08,5.34A190.43,190.43,0,0,0,375,185.24Z" transform="translate(0 -170.83)"/></svg>