<svg width="1921" height="370" viewBox="0 0 1921 370" fill="none" xmlns="http://www.w3.org/2000/svg">
<g clip-path="url(#clip0)">
<path d="M1921 28.2243C1903.44 27.9598 1885.99 27.4513 1868.8 26.7025C1745.5 21.2759 1644.17 9.60168 1519.33 7.50914C1331.02 4.36531 1212.84 1.95238 1077.5 1.8022C801.902 1.49182 527.379 18.883 254.699 8.75064C170.073 5.60681 84.9338 0.991209 0 3.57628e-06V348.304C214.127 347.913 429.279 364.964 646.481 369.089C817.27 372.333 938.985 366.416 1151.52 359.267C1226.47 356.744 1296.5 356.053 1371.8 354.381C1512.16 351.257 1647.86 354.761 1787.2 359.728C1831.35 361.335 1876.03 362.339 1920.9 362.731V28.2243H1921Z" fill="#CBEEF6"/>
</g>
<defs>
<clipPath id="clip0">
<rect width="1921" height="370" fill="white"/>
</clipPath>
</defs>
</svg>
