<svg id="Lager_1" data-name="Lager 1" xmlns="http://www.w3.org/2000/svg" viewBox="0 0 375 369.55"><defs><style>.cls-1{fill:#cbeef6;}</style></defs><path class="cls-1" d="M375,205.1a72.44,72.44,0,0,1-10.19-1.52c-24.07-5.42-43.85-17.08-68.22-19.17-36.76-3.14-59.83-5.55-86.25-5.7-53.8-.31-107.39,17.06-160.62,6.94C33.2,182.51,16.58,177.9,0,176.91V524.79c41.8-.39,83.8,16.64,126.2,20.76,33.34,3.24,57.1-2.67,98.59-9.81,14.63-2.52,28.3-3.21,43-4.88,27.4-3.12,53.89.38,81.09,5.34a188.55,188.55,0,0,0,26.1,3V205.1Z" transform="translate(0 -176.91)"/></svg>