<svg xmlns="http://www.w3.org/2000/svg" viewBox="0 0 276.47 182.13">
<defs>
<style>
.cls-1{isolation:isolate;}
.cls-2{opacity:0.38;mix-blend-mode:multiply;}
.cls-3{fill:#ba985f;}
.cls-4{fill:#e9ffe6;}</style>
</defs>

<g class="cls-1"><g id="Lager_1" data-name="Lager 1">

<g id="map">
<g class="cls-2">
<path
fill="#ba985f88"
 d="M319.4,383.66c-6.19-5.32-14.89-6.29-22.35-9.58-32.21-14.21-32.74-65.17-64.13-81.1-13.47-6.85-29.48-5.38-44.51-3.74-9,1-18.9,2.39-24.95,9.16-4.64,5.2-6,12.48-9.12,18.71-8.42,16.67-28.21,23.59-46.2,28.63s-37.83,11-47.54,26.94c-8.42,13.81-6.44,32.53,2.88,45.76s24.93,21.18,40.94,23.49c17.22,2.48,34.9-1,52.1,1.63s33.14,11.34,50.3,14.72c12.3,2.42,25,2.06,37.47,1.23,10.65-.7,21.34-1.75,31.64-4.57a94.62,94.62,0,0,0,37.34-20.22C317.49,431,322.33,426,325,421c2.59-4.87,2.93-12.31,2.64-17.65C327.24,396,325.12,388.57,319.4,383.66Z" transform="translate(-51.26 -278)"/>
</g>

<path class="cls-3" d="M315.4,381.66c-6.19-5.32-14.89-6.29-22.35-9.58-32.21-14.21-32.74-65.17-64.13-81.1-13.47-6.85-29.48-5.38-44.51-3.74-9,1-18.9,2.39-24.95,9.16-4.64,5.2-6,12.48-9.12,18.71-8.42,16.67-28.21,23.59-46.2,28.63s-37.83,11-47.54,26.94c-8.42,13.81-6.44,32.53,2.88,45.76s24.93,21.18,40.94,23.49c17.22,2.48,34.9-1,52.1,1.63s33.14,11.34,50.3,14.72c12.3,2.42,25,2.06,37.47,1.23,10.65-.7,21.34-1.75,31.64-4.57a94.62,94.62,0,0,0,37.34-20.22C313.49,429,318.33,424,321,419c2.59-4.87,2.93-12.31,2.64-17.65C323.24,394,321.12,386.57,315.4,381.66Z" transform="translate(-51.26 -278)"/></g>

<g id="pin"><g class="cls-2"><path d="M106.23,280A31.77,31.77,0,0,0,80,329.7l12.39,22,11.84,21a2.29,2.29,0,0,0,4,0l11.84-21,12.39-22A31.77,31.77,0,0,0,106.23,280Zm4.94,47.14a16,16,0,0,1-10.34,0,16,16,0,1,1,10.34,0Z" transform="translate(-51.26 -278)"/></g><path class="cls-4" d="M104.23,278A31.77,31.77,0,0,0,78,327.7l12.39,22,11.84,21a2.29,2.29,0,0,0,4,0l11.84-21,12.39-22A31.77,31.77,0,0,0,104.23,278Zm4.94,47.14a16,16,0,0,1-10.34,0,16,16,0,1,1,10.34,0Z" transform="translate(-51.26 -278)"/></g>

</g></g>
</svg>