<svg id="Lager_1" data-name="Lager 1" xmlns="http://www.w3.org/2000/svg" viewBox="0 0 375 796.18"><defs><style>.cls-1{fill:#e9ffe6;}</style></defs><path class="cls-1" d="M375,872.2a95.57,95.57,0,0,1-18.1-1.46c-24.07-4.44-43.85-14-68.23-15.71-36.76-2.58-59.83-4.56-86.24-4.68-53.8-.25-107.4,14-160.63,5.69C27.91,853.88,14,850.86,0,849.47V92.18C25.71,99.71,51.49,106.75,77.36,110c55.07,6.95,94.31-5.72,162.83-21,24.17-5.39,46.75-6.86,71.06-10.45,21.49-3.17,42.65-3.14,63.75-1.09Z" transform="translate(0 -76.03)"/></svg>