<svg id="Lager_1" data-name="Lager 1" xmlns="http://www.w3.org/2000/svg" viewBox="0 0 50.23 28.18">
<path class="cls-1" fill="#fff" d="M171,407.35a14.25,14.25,0,0,1-5.21-.79c-1.62-.68-3-2.13-3-3.78,0-1.83,1.83-3.33,3.78-3.62a8.69,8.69,0,0,1,5.59,1.39c-3.34-2.56-4.58-7.46-2.25-10.84s8.27-4.13,11.14-1.11a5,5,0,0,1,1.71-7.21,5.92,5.92,0,0,1,7.63,2.09c1.66-1.62,3.43-3.29,5.74-4s5.27.1,6.15,2.19c1.27,3-2.24,6.42-.85,9.36a6.35,6.35,0,0,1,7.23.66c1.8,1.76,1.54,5.11-.75,6.27,1.19-.6,3.29.75,4,1.52a4,4,0,0,1,.93,4c-1.1,3.61-5.28,3.8-8.66,4a62.46,62.46,0,0,1-7.24-.36,106,106,0,0,0-11,.16Q178.46,407.51,171,407.35Z" transform="translate(-162.77 -379.3)"/></svg>