<svg id="Lager_1" data-name="Lager 1" xmlns="http://www.w3.org/2000/svg" xmlns:xlink="http://www.w3.org/1999/xlink" viewBox="0 0 375 295.43"><defs><style>.cls-1{fill:url(#Namnlös_övertoning_26);}.cls-2{fill:url(#Namnlös_övertoning_26-2);}.cls-3{fill:url(#Namnlös_övertoning_19);}.cls-4{fill:#1a431f;}.cls-5{fill:#14361f;}</style><linearGradient id="Namnlös_övertoning_26" x1="316" y1="261.61" x2="315.29" y2="160.35" gradientUnits="userSpaceOnUse"><stop offset="0.05" stop-color="#14361f"/><stop offset="0.09" stop-color="#1b3a22"/><stop offset="0.41" stop-color="#5f623c"/><stop offset="0.68" stop-color="#907f4f"/><stop offset="0.89" stop-color="#af915b"/><stop offset="1" stop-color="#ba985f"/></linearGradient><linearGradient id="Namnlös_övertoning_26-2" x1="156.75" y1="322.5" x2="157.45" y2="235.41" xlink:href="#Namnlös_övertoning_26"/><linearGradient id="Namnlös_övertoning_19" x1="186.72" y1="430.54" x2="187.79" y2="283.87" gradientUnits="userSpaceOnUse"><stop offset="0.07" stop-color="#aec689"/><stop offset="0.36" stop-color="#759460"/><stop offset="0.66" stop-color="#44683d"/><stop offset="0.88" stop-color="#254d27"/><stop offset="1" stop-color="#1a431f"/></linearGradient></defs><path class="cls-1" d="M326.83,222.38c-9.37-1.56-19-3.12-28.29-1.35a21.38,21.38,0,0,1-3.73.55c-2.14,0-4.36-.7-6.39,0a41.41,41.41,0,0,0,8-6.52,13.85,13.85,0,0,1-6,0,64.73,64.73,0,0,0,10.26-11.88l-6.49-.43a46.29,46.29,0,0,0,7.44-8.3l-5.13,0a25.07,25.07,0,0,0,7.62-9.46,15.2,15.2,0,0,1-5.48-.69,38.16,38.16,0,0,0,8.07-9.71,12.5,12.5,0,0,1-5.36.58,34.56,34.56,0,0,0,7.69-9.74,5.77,5.77,0,0,1-4.05-.21,30.46,30.46,0,0,0,6.54-7.58,3.18,3.18,0,0,1-2.58.9,16.43,16.43,0,0,0,4.94-8.56,19.29,19.29,0,0,0,6.33,7.95,6,6,0,0,1-3-.47,16.91,16.91,0,0,0,8.69,7.8,8.3,8.3,0,0,1-4.48.93,12.2,12.2,0,0,0,8.25,6.9,8.88,8.88,0,0,1-7.7,2.4,25.5,25.5,0,0,0,9.38,9.49,10.35,10.35,0,0,1-5.33.72,18.47,18.47,0,0,0,7.07,8.57l-6.42,1a33,33,0,0,0,9,8.1l-6,1a20.24,20.24,0,0,0,9.45,7.1,19.55,19.55,0,0,1-6.66.92c2.9,3.19,6.29,6.61,10.52,6.66C337.23,221.26,332.92,223.39,326.83,222.38Z" transform="translate(0 -92.51)"/><path class="cls-2" d="M166.84,279.67c-8.2-1.34-16.59-2.69-24.76-1.16a19.11,19.11,0,0,1-3.27.48c-1.87,0-3.81-.61-5.59,0a36.41,36.41,0,0,0,7-5.62,12.28,12.28,0,0,1-5.26,0,56.26,56.26,0,0,0,9-10.25l-5.68-.37a40.25,40.25,0,0,0,6.51-7.16l-4.49,0a21.62,21.62,0,0,0,6.67-8.16,13.63,13.63,0,0,1-4.79-.59,33.11,33.11,0,0,0,7.06-8.39,11,11,0,0,1-4.69.51,30,30,0,0,0,6.73-8.41,5.11,5.11,0,0,1-3.55-.18,26.55,26.55,0,0,0,5.73-6.54,2.75,2.75,0,0,1-2.26.77,14.1,14.1,0,0,0,4.33-7.38,16.66,16.66,0,0,0,5.53,6.86,5.28,5.28,0,0,1-2.6-.4,14.76,14.76,0,0,0,7.61,6.73,7.35,7.35,0,0,1-3.93.79,10.63,10.63,0,0,0,7.23,6,7.9,7.9,0,0,1-6.75,2.08,22.17,22.17,0,0,0,8.22,8.18,9.21,9.21,0,0,1-4.67.63,16,16,0,0,0,6.19,7.38l-5.62.83a28.67,28.67,0,0,0,7.9,7l-5.28.85a17.73,17.73,0,0,0,8.27,6.12,17.45,17.45,0,0,1-5.83.79c2.54,2.75,5.5,5.7,9.21,5.75C176,278.71,172.18,280.55,166.84,279.67Z" transform="translate(0 -92.51)"/><path class="cls-3" d="M375,261.21V383.56c-12.09-.91-24.15-2.22-36.23-3.19-28.12-2.25-56.36-2.62-84.57-3-10.79-.14-21.6-.28-32.39-.26-15.83,0-31.65.4-47.43,1.63-7.49.58-14.95,1.35-22.41,2.2-13.49,1.54-27,3.33-40.49,4.7C74.2,389.41,35.22,389.59,0,378V263.07c6.16.38,12.3,1,18.43,1.73,4.2.47,8.39,1,12.59,1.4l2.64.27c3.71.36,7.42.67,11.15.88,1.08.06,2.16.11,3.25.15q4.14.15,8.26.1h0q4,0,8-.24,4.95-.24,9.89-.68c7.52-.64,15-1.55,22.53-2.5l8.83-1.14h0c7.05-.89,14.08-1.76,21.14-2.4a93.82,93.82,0,0,1,9.91-.5c1.36,0,2.72.09,4.07.24a32.25,32.25,0,0,1,3.78.58,42.55,42.55,0,0,1,6.8,2.13c3.73,1.49,7.34,3.35,11,5s7.21,3.11,10.91,4.4a127.22,127.22,0,0,0,67.16,4.54c5-1,9.94-2.36,14.83-3.85,12.09-3.68,23.94-8.29,36.14-11.62.88-.26,1.77-.49,2.66-.72,2.47-.63,5-1.21,7.46-1.72h0a159.6,159.6,0,0,1,29.32-3.22,162.46,162.46,0,0,1,24.74,1.44c2.81.37,5.61.83,8.39,1.36Q369.51,259.77,375,261.21Z" transform="translate(0 -92.51)"/><path class="cls-4" d="M142.75,198.58c-5.19,1.36-6.62,1.42-11.11.42,5.52,6.41,9,7.79,17.37,10.9a13.11,13.11,0,0,1-9.57,1c1.6,7.84,8.82,14.54,17.56,16.28a20.31,20.31,0,0,1-15.71-2.33,50.35,50.35,0,0,0,16,19.46,22.88,22.88,0,0,1-10.91-.49c3.06,9.16,12.07,15.58,20.6,21.39a145.12,145.12,0,0,0-45.14-1.49c-5.84.73-11.93,1.8-17.54.16a30.36,30.36,0,0,0,12.67-15,20.34,20.34,0,0,1-16.89,3.87,39.61,39.61,0,0,0,13.47-15.26,26.71,26.71,0,0,1-7,4.2c-2.63.93-5.81,1-8.15-.42a63.89,63.89,0,0,0,14.19-14,12.64,12.64,0,0,1-7.35,2.19,2.14,2.14,0,0,1-1.23-.28c-1-.74.06-2.16,1.08-2.92a34.15,34.15,0,0,0,11-13.6,10,10,0,0,1-10.63,1.92,26.66,26.66,0,0,0,7.74-10.43,11.39,11.39,0,0,1-9.19,1.53,81.29,81.29,0,0,0,9.48-11,20.48,20.48,0,0,1-9.47,3.2c.56,0,1.74-1.25,2.19-1.58l2.26-1.75c1.48-1.19,2.93-2.42,4.33-3.69a90.35,90.35,0,0,0,7.79-8c.88-1,2.54-3.1,4.29-2.85,1.54.22,2,2,2.76,3.06,2,2.81,3.49,5.75,5.9,8.35A36.84,36.84,0,0,0,142.75,198.58Z" transform="translate(0 -92.51)"/><path class="cls-4" d="M125,343.55q-8.27-.23-16.53-.32-37.26-.44-74.48,1.86-5.88.35-11.76.79-9.76.71-19.53,1.61l-2.7.25V234.19c.23-.26.47-.51.71-.77q3-3.25,6.13-6.45L0,228.29v-5.92a200.28,200.28,0,0,0,14.69-20.29c.18-.26.34-.52.51-.79a37.62,37.62,0,0,0-7.65.33,35.13,35.13,0,0,0-4.2.86c.13-.28.26-.57.4-.85q5.77-12.44,11.56-24.85a29.07,29.07,0,0,1-11.43-1q10.08-15.42,20.6-30.5L10.68,147c.48-.06,1.56-1.64,1.91-2q.95-1,1.86-2.07,1.88-2.18,3.65-4.45a107.13,107.13,0,0,0,6.64-9.56,108.56,108.56,0,0,0,5.58-10.22,109.34,109.34,0,0,0,4.47-10.79c.26-.74.52-1.48.76-2.22q1.47-4.43,2.55-9c.3-1.27.68-5.8,2.63-3.5,1.71,2,2.64,5,3.67,7.43,1.58,3.7,3.28,7.35,5.06,11a238.37,238.37,0,0,0,12.82,22.76L64.05,137a12.67,12.67,0,0,1-8.29-.06l21.62,36.71a24.16,24.16,0,0,1-11.1-4.27q5.48,10.77,11.25,21.39Q85,204.55,92.93,218l-13.07-5.81L86.32,224l7.74,14.08,7.52,13.67h0l.63,1.15c-.43-.23-.87-.45-1.31-.66a61.82,61.82,0,0,0-14.18-5.05q2.5,3.44,4.71,7.08a104.17,104.17,0,0,1,5.36,9.93q1.41,3,2.62,6A34.15,34.15,0,0,1,88,266.9a259.87,259.87,0,0,1,24.19,42.66L96,301.37l17.92,26.07Z" transform="translate(0 -92.51)"/><path class="cls-4" d="M311.41,175a8.62,8.62,0,0,1-5.63,0l14.67,24.89a16.26,16.26,0,0,1-7.53-2.9q8.54,16.78,18.07,33L322.13,226l15.16,27.58a42.86,42.86,0,0,0-10.51-3.87,71.79,71.79,0,0,1,8.6,15.6,23.38,23.38,0,0,1-7.77-2.22A175.15,175.15,0,0,1,344,292l-10.93-5.55,19.66,28.6A696.09,696.09,0,0,0,236,321.71a83.43,83.43,0,0,0,16.16-26.59,13.76,13.76,0,0,1-13.34,5.25l23.42-38.78a19.94,19.94,0,0,1-13.63,2.57,290.59,290.59,0,0,1,24-28.12l-8.78,1.68a135.65,135.65,0,0,0,14.45-19.1,25.62,25.62,0,0,0-8,.8L278.36,202a19.72,19.72,0,0,1-7.75-.71q6.83-10.44,14-20.68l-9.36,1.17c.32,0,1-1.11,1.29-1.37q.64-.71,1.26-1.41c.86-1,1.68-2,2.48-3a70.6,70.6,0,0,0,4.5-6.48,74.33,74.33,0,0,0,9.06-21.83c.21-.86.46-3.94,1.78-2.38,1.17,1.37,1.79,3.4,2.49,5,1.07,2.51,2.23,5,3.43,7.42a162.17,162.17,0,0,0,8.7,15.44Z" transform="translate(0 -92.51)"/><path class="cls-5" d="M175.33,325.71a4.78,4.78,0,0,1,1.48,1.24c.27.37.81.77.94,1.18.29.94-.43,2.07-1.08,3.05a4.83,4.83,0,0,1-1.25,1.31,3.52,3.52,0,0,1-1.94.62,1.73,1.73,0,0,1-1.85-1.55c-.06-.8.49-1.65.22-2.41-.18-.49-.65-.85-.83-1.34a1.64,1.64,0,0,1,.85-2.14A3.7,3.7,0,0,1,175.33,325.71Z" transform="translate(0 -92.51)"/><path class="cls-5" d="M176.41,325.42a2,2,0,0,0,1.17-.3,3.93,3.93,0,0,0,.92-.8,2.22,2.22,0,0,0,.42-.64.82.82,0,0,0,0-.7,1,1,0,0,0-.85-.41,2.47,2.47,0,0,0-1.7.53,1.86,1.86,0,0,0-.67,1,1.11,1.11,0,0,0,.15.8c.07.11.16.19.23.29A.43.43,0,0,0,176.41,325.42Z" transform="translate(0 -92.51)"/><path class="cls-5" d="M180.85,324.81a4.39,4.39,0,0,0-1.68.2,2.44,2.44,0,0,0-1,.46,1.19,1.19,0,0,0-.39,1,1.16,1.16,0,0,0,.71.84,2.13,2.13,0,0,0,1.25,0,7.23,7.23,0,0,0,1.28-.46,2.06,2.06,0,0,0,1.13-.93.47.47,0,0,0,0-.52,2,2,0,0,0-.53-.42A2.12,2.12,0,0,0,180.85,324.81Z" transform="translate(0 -92.51)"/><path class="cls-5" d="M177.62,331.43a1.93,1.93,0,0,1,1.15-.37,4.07,4.07,0,0,1,1.2.19,2.35,2.35,0,0,1,.7.32.82.82,0,0,1,.36.6,1,1,0,0,1-.5.8,2.49,2.49,0,0,1-1.72.45,1.8,1.8,0,0,1-1.11-.51,1.14,1.14,0,0,1-.3-.76c0-.12,0-.24,0-.36A.42.42,0,0,1,177.62,331.43Z" transform="translate(0 -92.51)"/><path class="cls-5" d="M181.63,327.81a4.43,4.43,0,0,0-1.69.19,2.41,2.41,0,0,0-1,.47,1.17,1.17,0,0,0-.39,1,1.15,1.15,0,0,0,.71.85,2.13,2.13,0,0,0,1.25,0,6.52,6.52,0,0,0,1.28-.46,2.06,2.06,0,0,0,1.12-.92.48.48,0,0,0,0-.53,1.84,1.84,0,0,0-.54-.41A2.06,2.06,0,0,0,181.63,327.81Z" transform="translate(0 -92.51)"/><path class="cls-5" d="M179.77,306.84a3.75,3.75,0,0,1,1.34.61c.27.21.75.39.93.67.4.63.11,1.6-.17,2.45a3.64,3.64,0,0,1-.64,1.21,2.64,2.64,0,0,1-1.29.85,1.32,1.32,0,0,1-1.67-.76c-.21-.56,0-1.3-.33-1.8-.23-.32-.65-.49-.88-.81a1.23,1.23,0,0,1,.18-1.73A2.8,2.8,0,0,1,179.77,306.84Z" transform="translate(0 -92.51)"/><path class="cls-5" d="M180.5,306.41a1.53,1.53,0,0,0,.8-.45,3.05,3.05,0,0,0,.5-.78,1.87,1.87,0,0,0,.18-.55.61.61,0,0,0-.15-.51.79.79,0,0,0-.71-.13,1.92,1.92,0,0,0-1.13.74,1.38,1.38,0,0,0-.28.88.84.84,0,0,0,.28.56l.22.16A.3.3,0,0,0,180.5,306.41Z" transform="translate(0 -92.51)"/><path class="cls-5" d="M183.62,305.06a3.17,3.17,0,0,0-1.19.49,1.83,1.83,0,0,0-.63.54.9.9,0,0,0-.06.84.85.85,0,0,0,.69.47,1.59,1.59,0,0,0,.91-.25,5.57,5.57,0,0,0,.84-.6,1.53,1.53,0,0,0,.63-.91.35.35,0,0,0-.13-.37,1.31,1.31,0,0,0-.47-.2A1.67,1.67,0,0,0,183.62,305.06Z" transform="translate(0 -92.51)"/><path class="cls-5" d="M182.62,310.55a1.48,1.48,0,0,1,.76-.5,2.61,2.61,0,0,1,.92-.11,1.84,1.84,0,0,1,.57.09.61.61,0,0,1,.39.36.79.79,0,0,1-.2.69,1.85,1.85,0,0,1-1.17.68,1.4,1.4,0,0,1-.91-.14.85.85,0,0,1-.37-.5c0-.09,0-.18-.05-.27A.33.33,0,0,1,182.62,310.55Z" transform="translate(0 -92.51)"/><path class="cls-5" d="M184.8,307.08a3.53,3.53,0,0,0-1.19.49,1.84,1.84,0,0,0-.62.55.87.87,0,0,0-.07.84.85.85,0,0,0,.69.47,1.67,1.67,0,0,0,.91-.25,5.57,5.57,0,0,0,.84-.6,1.59,1.59,0,0,0,.63-.91.36.36,0,0,0-.12-.38,1.62,1.62,0,0,0-1.07-.21Z" transform="translate(0 -92.51)"/><path class="cls-5" d="M151.11,316.58a5.49,5.49,0,0,1,2.13.86c.45.31,1.21.55,1.51,1,.68.95.29,2.5-.09,3.85a5.64,5.64,0,0,1-.92,1.94,4.2,4.2,0,0,1-2,1.43,2.07,2.07,0,0,1-2.67-1.07c-.37-.87-.07-2.05-.66-2.8-.38-.49-1-.72-1.43-1.21a1.94,1.94,0,0,1,.17-2.73A4.37,4.37,0,0,1,151.11,316.58Z" transform="translate(0 -92.51)"/><path class="cls-5" d="M152.22,315.85a2.31,2.31,0,0,0,1.22-.77,4.5,4.5,0,0,0,.73-1.25,2.84,2.84,0,0,0,.25-.88,1,1,0,0,0-.28-.79A1.22,1.22,0,0,0,153,312a3,3,0,0,0-1.73,1.23,2.15,2.15,0,0,0-.37,1.41,1.26,1.26,0,0,0,.47.85c.11.09.25.15.36.24A.5.5,0,0,0,152.22,315.85Z" transform="translate(0 -92.51)"/><path class="cls-5" d="M157,313.51a5.1,5.1,0,0,0-1.83.85,2.9,2.9,0,0,0-.95.89,1.43,1.43,0,0,0,0,1.33,1.34,1.34,0,0,0,1.11.68,2.49,2.49,0,0,0,1.42-.45,8.88,8.88,0,0,0,1.27-1,2.45,2.45,0,0,0,.93-1.47.57.57,0,0,0-.22-.58,2.23,2.23,0,0,0-.76-.27A2.43,2.43,0,0,0,157,313.51Z" transform="translate(0 -92.51)"/><path class="cls-5" d="M155.83,322.2a2.31,2.31,0,0,1,1.16-.85,4.41,4.41,0,0,1,1.43-.23,2.5,2.5,0,0,1,.91.1,1,1,0,0,1,.64.54,1.22,1.22,0,0,1-.27,1.09,2.91,2.91,0,0,1-1.78,1.15,2.11,2.11,0,0,1-1.45-.16,1.29,1.29,0,0,1-.61-.75c-.05-.14-.05-.28-.1-.42A.53.53,0,0,1,155.83,322.2Z" transform="translate(0 -92.51)"/><path class="cls-5" d="M159,316.6a5.28,5.28,0,0,0-1.83.86,2.86,2.86,0,0,0-.94.89,1.38,1.38,0,0,0-.05,1.32,1.33,1.33,0,0,0,1.12.69,2.53,2.53,0,0,0,1.41-.45,8.88,8.88,0,0,0,1.28-1,2.49,2.49,0,0,0,.93-1.46.58.58,0,0,0-.23-.59,2.14,2.14,0,0,0-.76-.26A2.43,2.43,0,0,0,159,316.6Z" transform="translate(0 -92.51)"/><path class="cls-5" d="M202.14,308.07a3.33,3.33,0,0,1,1.33.61c.28.21.76.38.94.66.4.63.11,1.6-.17,2.45a3.46,3.46,0,0,1-.64,1.21,2.69,2.69,0,0,1-1.29.85,1.32,1.32,0,0,1-1.67-.75c-.21-.57,0-1.31-.34-1.8-.22-.32-.64-.49-.88-.81a1.26,1.26,0,0,1,.19-1.74A2.82,2.82,0,0,1,202.14,308.07Z" transform="translate(0 -92.51)"/><path class="cls-5" d="M202.87,307.64a1.42,1.42,0,0,0,.79-.46,3,3,0,0,0,.51-.77,1.93,1.93,0,0,0,.18-.56.62.62,0,0,0-.16-.51.77.77,0,0,0-.7-.12,1.9,1.9,0,0,0-1.13.73,1.37,1.37,0,0,0-.28.89.88.88,0,0,0,.27.55,2,2,0,0,1,.23.17A.33.33,0,0,0,202.87,307.64Z" transform="translate(0 -92.51)"/><path class="cls-5" d="M206,306.28a3.53,3.53,0,0,0-1.19.49,2,2,0,0,0-.63.54.89.89,0,0,0-.06.85.86.86,0,0,0,.69.46,1.52,1.52,0,0,0,.91-.25,4.44,4.44,0,0,0,.84-.6,1.53,1.53,0,0,0,.63-.9.36.36,0,0,0-.13-.38,1.29,1.29,0,0,0-.47-.19A1.67,1.67,0,0,0,206,306.28Z" transform="translate(0 -92.51)"/><path class="cls-5" d="M205,311.78a1.4,1.4,0,0,1,.76-.51,2.86,2.86,0,0,1,.92-.1,1.83,1.83,0,0,1,.57.08.65.65,0,0,1,.39.37.81.81,0,0,1-.2.69,2,2,0,0,1-1.17.68,1.34,1.34,0,0,1-.91-.15.79.79,0,0,1-.37-.49,2.74,2.74,0,0,1,0-.28A.29.29,0,0,1,205,311.78Z" transform="translate(0 -92.51)"/><path class="cls-5" d="M207.17,308.31a3.17,3.17,0,0,0-1.19.49,1.83,1.83,0,0,0-.63.54.9.9,0,0,0-.06.84.85.85,0,0,0,.69.47,1.59,1.59,0,0,0,.91-.25,5.57,5.57,0,0,0,.84-.6,1.53,1.53,0,0,0,.63-.9.36.36,0,0,0-.13-.38,1.14,1.14,0,0,0-.47-.19A1.46,1.46,0,0,0,207.17,308.31Z" transform="translate(0 -92.51)"/><path class="cls-5" d="M199.91,291.36a2.46,2.46,0,0,1,1,.1,2.61,2.61,0,0,1,.75.22c.39.32.42,1,.43,1.61a2.57,2.57,0,0,1-.15.92,1.84,1.84,0,0,1-.64.82.9.9,0,0,1-1.24-.11c-.26-.32-.27-.85-.61-1.09s-.52-.17-.74-.32a.84.84,0,0,1-.26-1.16A1.9,1.9,0,0,1,199.91,291.36Z" transform="translate(0 -92.51)"/><path class="cls-5" d="M200.29,290.92a1,1,0,0,0,.41-.46,1.82,1.82,0,0,0,.15-.61,1.27,1.27,0,0,0,0-.39.44.44,0,0,0-.21-.3.53.53,0,0,0-.48.08,1.27,1.27,0,0,0-.56.72,1,1,0,0,0,0,.63.57.57,0,0,0,.3.29l.18.06A.23.23,0,0,0,200.29,290.92Z" transform="translate(0 -92.51)"/><path class="cls-5" d="M202,289.37a2.28,2.28,0,0,0-.66.58,1.17,1.17,0,0,0-.28.48.62.62,0,0,0,.14.56.64.64,0,0,0,.55.15,1.17,1.17,0,0,0,.53-.36,3.73,3.73,0,0,0,.41-.57,1.06,1.06,0,0,0,.2-.72c0-.11-.06-.19-.16-.22a1,1,0,0,0-.35,0A1.29,1.29,0,0,0,202,289.37Z" transform="translate(0 -92.51)"/><path class="cls-5" d="M202.55,293.12a1,1,0,0,1,.38-.5,2,2,0,0,1,.56-.26,1.07,1.07,0,0,1,.39-.07.4.4,0,0,1,.33.15.5.5,0,0,1,0,.48,1.25,1.25,0,0,1-.59.69.92.92,0,0,1-.62.11.57.57,0,0,1-.35-.23c0-.06,0-.12-.09-.17A.23.23,0,0,1,202.55,293.12Z" transform="translate(0 -92.51)"/><path class="cls-5" d="M203.19,290.41a2.12,2.12,0,0,0-.65.58,1.19,1.19,0,0,0-.29.48.65.65,0,0,0,.14.56.61.61,0,0,0,.55.15,1.12,1.12,0,0,0,.53-.36,3.73,3.73,0,0,0,.41-.57,1.06,1.06,0,0,0,.2-.72.25.25,0,0,0-.16-.22,1,1,0,0,0-.35,0A1.29,1.29,0,0,0,203.19,290.41Z" transform="translate(0 -92.51)"/><path class="cls-5" d="M212.47,289.59a1.92,1.92,0,0,1,.8.08c.18.06.46.06.6.18.32.25.34.81.35,1.3a2,2,0,0,1-.12.74,1.48,1.48,0,0,1-.52.67.72.72,0,0,1-1-.1c-.21-.25-.22-.68-.49-.87s-.43-.14-.6-.27a.67.67,0,0,1-.21-.93A1.53,1.53,0,0,1,212.47,289.59Z" transform="translate(0 -92.51)"/><path class="cls-5" d="M212.77,289.23a.75.75,0,0,0,.33-.37,1.78,1.78,0,0,0,.13-.49,1.13,1.13,0,0,0,0-.32.33.33,0,0,0-.17-.24.43.43,0,0,0-.39.06,1,1,0,0,0-.45.58.69.69,0,0,0,0,.51.43.43,0,0,0,.24.24l.14,0A.15.15,0,0,0,212.77,289.23Z" transform="translate(0 -92.51)"/><path class="cls-5" d="M214.15,288a1.8,1.8,0,0,0-.53.46,1,1,0,0,0-.23.4.46.46,0,0,0,.11.44.47.47,0,0,0,.44.13.81.81,0,0,0,.43-.3,2.15,2.15,0,0,0,.33-.46.83.83,0,0,0,.17-.58c0-.08-.05-.15-.13-.17a.67.67,0,0,0-.28,0A.87.87,0,0,0,214.15,288Z" transform="translate(0 -92.51)"/><path class="cls-5" d="M214.6,291a.81.81,0,0,1,.31-.4,1.57,1.57,0,0,1,.45-.22.89.89,0,0,1,.32-.05.31.31,0,0,1,.26.12.41.41,0,0,1,0,.39,1.05,1.05,0,0,1-.48.56.81.81,0,0,1-.5.09.47.47,0,0,1-.28-.19c0-.05,0-.1-.08-.14A.18.18,0,0,1,214.6,291Z" transform="translate(0 -92.51)"/><path class="cls-5" d="M215.12,288.82a1.7,1.7,0,0,0-.53.47,1,1,0,0,0-.23.39.49.49,0,0,0,.12.45.46.46,0,0,0,.44.12.94.94,0,0,0,.43-.29,3.83,3.83,0,0,0,.33-.46.9.9,0,0,0,.16-.59.18.18,0,0,0-.13-.17.88.88,0,0,0-.28,0A.85.85,0,0,0,215.12,288.82Z" transform="translate(0 -92.51)"/></svg>