<?xml version="1.0" standalone="no"?>
<!DOCTYPE svg PUBLIC "-//W3C//DTD SVG 20010904//EN"
 "http://www.w3.org/TR/2001/REC-SVG-20010904/DTD/svg10.dtd">
<svg version="1.0" xmlns="http://www.w3.org/2000/svg"
 width="474.000000pt" height="474.000000pt" viewBox="0 0 474.000000 474.000000"
 preserveAspectRatio="xMidYMid meet">
<metadata>
Created by potrace 1.11, written by Peter Selinger 2001-2013
</metadata>
<g transform="translate(0.000000,474.000000) scale(0.100000,-0.100000)"
fill="#000000" stroke="none">
<path d="M1962 4723 c-10 -19 -58 -182 -66 -223 -2 -14 -9 -47 -15 -73 -30
-130 -11 -250 65 -416 l34 -74 -23 -19 c-134 -114 -341 -318 -332 -327 3 -2
13 3 22 11 21 19 127 77 163 89 l25 9 -23 -16 c-24 -18 -85 -98 -95 -126 -4
-10 43 23 104 73 124 101 130 91 13 -22 -135 -130 -174 -173 -201 -219 -14
-25 -44 -64 -65 -88 -63 -69 -72 -99 -75 -252 -1 -74 -4 -160 -7 -190 -4 -45
-38 -159 -73 -240 -3 -8 -7 -17 -8 -20 0 -3 -19 -44 -41 -91 l-41 -85 -36 4
c-31 4 -42 -1 -71 -30 -65 -65 -90 -224 -32 -202 19 7 21 11 -135 -263 -54
-95 -150 -256 -214 -357 -75 -122 -118 -201 -125 -233 -15 -65 -4 -343 15
-407 38 -126 101 -211 197 -269 32 -19 55 -37 52 -40 -3 -3 2 -21 11 -40 11
-24 28 -40 53 -50 168 -67 334 -80 432 -35 59 28 126 90 159 150 76 138 92
169 110 216 12 30 22 64 23 77 1 13 6 21 10 19 4 -3 15 7 24 21 12 18 20 23
27 16 15 -15 27 -14 27 2 0 6 4 18 9 26 8 12 13 12 24 3 12 -10 17 -7 27 18 7
16 23 42 36 57 l24 28 0 -41 c0 -49 16 -73 53 -79 22 -4 35 1 57 24 28 27 36
54 31 103 -1 9 5 31 14 47 14 29 24 35 50 32 6 0 19 15 29 34 16 29 23 34 43
29 19 -5 32 1 57 25 l33 32 12 -28 13 -28 19 37 c22 43 38 56 49 38 5 -9 12
-4 22 16 11 23 20 28 40 26 19 -2 28 3 33 17 4 12 35 35 80 56 78 38 125 70
125 86 0 10 89 94 101 94 4 0 47 -52 94 -115 75 -100 116 -149 238 -284 32
-35 98 -120 269 -348 143 -191 214 -275 329 -393 88 -89 89 -91 79 -124 -5
-19 -12 -53 -15 -75 -9 -62 -15 -98 -20 -126 -9 -48 -16 -160 -10 -160 3 0 14
20 25 44 21 50 32 60 60 51 14 -4 25 -25 38 -68 l18 -61 44 57 c25 32 50 55
56 53 9 -3 12 394 12 1577 l0 1581 -22 29 c-18 25 -21 41 -19 130 l1 102 -27
-59 c-17 -34 -31 -54 -35 -47 -4 6 -5 11 -3 11 3 0 1 19 -5 43 -12 55 -58 157
-70 157 -6 0 -8 -7 -4 -15 7 -20 1 -19 -37 7 -18 13 -34 24 -36 25 -2 1 7 16
19 33 30 42 20 47 -29 16 -22 -14 -43 -26 -45 -26 -3 0 -6 26 -8 57 -2 47 -7
58 -21 61 -10 2 -26 -3 -36 -12 -16 -15 -19 -13 -35 20 -9 20 -25 38 -35 41
-26 7 -32 38 -18 91 10 38 9 46 -4 56 -15 10 -15 13 -1 26 14 12 12 15 -11 23
-15 5 -27 16 -27 25 0 33 -14 42 -47 33 -37 -11 -49 -4 -58 32 -6 23 -12 27
-41 27 -24 0 -37 6 -45 23 -7 12 -12 23 -11 25 1 1 2 9 2 17 0 23 -61 6 -84
-22 -29 -37 -29 -35 -40 136 -9 141 -19 164 -108 254 -68 69 -160 129 -174
114 -3 -2 -6 -17 -8 -33 -6 -45 -16 -81 -53 -200 -32 -104 -40 -141 -42 -189
-1 -16 -3 -17 -11 -5 -7 12 -12 12 -29 -5 -12 -10 -22 -16 -24 -14 -1 2 -10
21 -20 42 -9 20 -21 37 -25 37 -5 0 -20 -36 -32 -81 -13 -46 -30 -83 -38 -87
-19 -7 -53 33 -105 120 l-38 63 7 -73 6 -73 -27 25 c-28 26 -89 51 -103 42 -5
-3 -8 -46 -6 -96 l2 -91 -21 28 c-30 41 -41 51 -28 26 6 -12 11 -32 11 -45 -1
-14 -22 18 -58 87 -70 135 -118 207 -176 267 -40 40 -48 56 -72 144 -25 95
-50 154 -66 154 -4 0 -11 -8 -16 -17z"/>
</g>
</svg>
