<svg id="Lager_1" data-name="Lager 1" xmlns="http://www.w3.org/2000/svg" viewBox="0 0 141.73 30.6"><defs><style>.cls-1{fill:#009fe4;}</style></defs><path class="cls-1" d="M86.89,20.18C85.7,19,83.29,18,81.58,17.13s-5.77-2.36-4.27-5.25c.75-1.44,2.83-1.67,4.19-1.38a6.74,6.74,0,0,1,3.57,2.1,10.44,10.44,0,0,1,1.21,1.69,11.87,11.87,0,0,1,.85,2h.41V9.51h-.35a2.08,2.08,0,0,1-1.78,1.27,3.7,3.7,0,0,1-1.63-.42A10.82,10.82,0,0,0,80,9.18c-4.94-.29-7.06,3.46-6.78,6.28a5.51,5.51,0,0,0,2.34,4.11c2.29,1.83,4.07,2.32,6.87,3.81,3.52,1.88,2.27,4.71.54,5.4a6.17,6.17,0,0,1-5.63-1,7,7,0,0,1-1.8-1.86,7.61,7.61,0,0,1-1.07-2.26h-.5V30.3h.48a2.91,2.91,0,0,1,.66-1.17,1.53,1.53,0,0,1,2-.19c.85.43,1.58.81,2.13,1a7.36,7.36,0,0,0,2.26.57c3.73.42,7.4-2,7.4-6.16a5.77,5.77,0,0,0-2-4.21m14.43,6.52A7.12,7.12,0,0,1,97,27.88a3,3,0,0,1-2.15-3.95c.68-2.23,2.8-3.74,6.19-5.45l.39-.2Zm6.27,2.16c-.82-.1-1-1.1-.94-2.63l.12-9.9c.23-4.12-.61-6.48-5.6-7a12.23,12.23,0,0,0-8.9,2.38A4.17,4.17,0,0,0,90.58,15a2.48,2.48,0,0,0,2.66,2.29c1.58,0,2.66-.84,2.67-2a2.54,2.54,0,0,0-.69-1.69,1.93,1.93,0,0,1-.51-1.37c.09-1.07,1.66-2,3.91-2,1.94,0,3,1.5,2.86,3.44l-.07,3.5s-1.88.79-6.21,2.76c-3.36,1.53-4.87,3.38-5.11,5.39a4.48,4.48,0,0,0,3.58,5.16A7.37,7.37,0,0,0,99,29.22c.61-.36,2.36-1.52,2.36-1.52v0a3.31,3.31,0,0,0,3,2.76,5,5,0,0,0,4.53-1.68l-.4-.4a1.25,1.25,0,0,1-.89.45m32-1.72V15c0-3.18-1.8-5.53-5-5.53a7.74,7.74,0,0,0-6.25,3.67l-.27.51L128,13c-.5-2.25-2.41-3.57-5-3.57-2.13,0-3.88,1-5.68,3.29l-.63.8V9.81l-7.85,0v.45c2.17.38,2.5,1.43,2.5,3.41l.08,12.75c0,1.86-.25,3-2.3,3.27v.5h9.6v-.51c-1.63-.28-2-1.26-2-3.08V14.85l.11-.17c1.24-1.94,2.39-2.81,3.7-2.81.82,0,2.36.41,2.36,2.86V26.5c0,1.92-.21,2.84-2,3.17v.5h9.37v-.5c-1.87-.29-2.06-1.24-2.06-3V14.94l.19-.27c1.52-2.12,2.49-2.84,3.83-2.84s2.2.91,2.2,2.63V26.35c0,1.49-.13,3-2.06,3.32v.5h9.46v-.51c-1.84-.32-2.12-1.05-2.13-2.52m-70.9-1.7-5.38-8.63,2.05-2.34c3.23-3.56,4-4.11,6.58-4.21V9.78H63.39v.45c1.09,0,2.37.24,2.37,1.75,0,.88-.81,1.42-2.24,3.11l-5,5.61V0H50.4V.51c2.37.13,2.88.9,2.88,3.27V26.35c0,2-.51,3.19-2.88,3.32v.5H61.2v-.5c-2.27-.21-2.66-1.08-2.66-3.12V22.31L60,20.67l3.94,6.55a3.37,3.37,0,0,1,.55,1.39,1.09,1.09,0,0,1-1.22,1.05v.51H73v-.51c-1.59-.17-2.28-1.15-4.28-4.22M47.31,27.12V0H39.17V.49C41.59.64,42,1.37,42,3.62V26.8c0,1.87-.76,2.73-2.87,2.86v.51H49.7v-.51a2.2,2.2,0,0,1-2.39-2.54m-36-12.5H10.07V.94h5.11c5.13,0,7.39,2,8,6.75h.41V0H0V.51c3.4,0,4.38.89,4.38,4.38V25.32c0,3.07-.64,4.45-4.38,4.34v.62H14.33v-.62c-2,0-2.77-.21-3.45-1s-.82-1.62-.82-3.36V15.53h.74c4.2,0,6.48,2.3,6.77,6.84H18V8.15h-.41c-.18,4.06-2.51,6.47-6.29,6.47M33.73,21.2c0,6.09-1.55,8.38-3.9,8.38-2.72,0-3.89-3.22-3.86-10.77,0-6.14,1.56-8.34,3.87-8.34,3.21,0,3.92,3.57,3.89,10.73m-4-11.73c-4.54,0-9.32,3.15-9.31,10.39,0,7.87,5.54,10.71,9.53,10.7s9.31-2.83,9.3-10.59c0-7.36-4.62-10.51-9.52-10.5"/></svg>