<svg id="Lager_1" data-name="Lager 1" preserveAspectRatio="none" xmlns="http://www.w3.org/2000/svg" viewBox="0 0 375 477.43"><defs><style>.cls-1{fill:#ffdde9;}</style></defs><path class="cls-1" d="M375,94.66V545.52c-42.74,2.22-85.67,20.7-129,25.44-36.67,4-62.8-3.3-108.43-12.12-16.09-3.11-31.12-4-47.32-6-30.13-3.85-59.27.48-89.18,6.6L0,559.63V118.06c7.86-1.47,15.71-3.09,23.53-4.44,57.35-9.84,115.1,7,173.06,6.75,28.46-.14,53.32-2.49,92.92-5.54,26.27-2,47.57-13.37,73.51-18.63A85.55,85.55,0,0,1,375,94.66Z" transform="translate(0 -94.66)"/></svg>